<?xml version="1.0" encoding="utf-8"?><svg fill="none" viewBox="0 0 380 260" xmlns="http://www.w3.org/2000/svg"><defs><clipPath id="cp-700-472"><rect height="472" width="700" y="0" x="0" /></clipPath><clipPath id="cp-340-360"><rect height="360" width="340" y="0" x="0" /></clipPath><g id="comp_1_ba400386-23e7-4917-9feb-1e5242d3491b"><g transform="matrix(1,0,0,1,170,180)" id="形状图层 7"><g id="形状 1"><path fill="#ffffff" fill-opacity="1" d="M13.5,-129L-12.5,-120L-36.5,-128L-63.5,-114.5L-70.5,18.5L19,121C19,121,96.5,93.5,100.5,90.5C104.5,87.5,87,-45.5,87,-45.5L13.5,-129Z" /></g></g><g transform="matrix(1,0,0,1,170,180)" id="形状图层 6"><g id="形状 1"><path stroke-linejoin="miter" stroke-linecap="round" stroke-width="16" stroke-opacity="1" stroke="#000000" fill="#ffffff" fill-opacity="1" d="M126.5,65.5C126.5,65.5,172.5,77.5,136.5,115C100.5,152.5,51.5,175.5,2.5,170C-30,166,-17,135,-17,135" /></g></g><g transform="matrix(1,0,0,1,170,180)" id="形状图层 5"><g id="形状 1"><path stroke-linejoin="miter" stroke-linecap="round" stroke-width="16" stroke-opacity="1" stroke="#000000" fill="#ffffff" fill-opacity="1" d="M-102,-24C-102,-24,-131.5,-2,-109.5,47.5C-87.5,97,-24.5,153.5,27.5,126.5" /></g></g><g transform="matrix(1,0,0,1,170,180)" id="形状图层 4"><g id="形状 1"><path stroke-linejoin="miter" stroke-linecap="round" stroke-width="16" stroke-opacity="1" stroke="#000000" fill="#ffffff" fill-opacity="1" d="M46.5,-111C46.5,-111,75.5,-146.5,119,-69C146,-6.5,140.5,78,90.5,96.5" /></g></g><g transform="matrix(1,0,0,1,170,180)" id="形状图层 3"><g id="形状 1"><path stroke-linejoin="miter" stroke-linecap="round" stroke-width="16" stroke-opacity="1" stroke="#000000" fill="#ffffff" fill-opacity="1" d="M-12,-120.5C7,-132,27,-152.5,68,-75.5" /></g></g><g transform="matrix(1,0,0,1,170,180)" id="形状图层 2"><g id="形状 1"><path stroke-linejoin="miter" stroke-linecap="round" stroke-width="16" stroke-opacity="1" stroke="#000000" fill="#ffffff" fill-opacity="1" d="M-62.5,-117.5C-48.5,-127,-17.5,-152,11.5,-73" /></g></g><g transform="matrix(1,0,0,1,170,180)" id="形状图层 1"><g id="形状 1"><path stroke-linejoin="miter" stroke-linecap="round" stroke-width="16" stroke-opacity="1" stroke="#000000" fill="#ffffff" fill-opacity="1" d="M-59,29C-59,29,-189.5,-137,-138,-167C-86.5,-197,-44,-71,-34,-53.5" /></g></g></g><g id="comp_0_26a36fce-28ea-4899-b299-c07f90580991"><g opacity="0" id="形状图层 1"><animate repeatCount="indefinite" attributeName="opacity" dur="0.775s" begin="0.2s" calcMode="spline" values="0; 1; 1; 0" keyTimes="0; 0.774; 0.935; 1" keySplines="0 0 1 1; 0 0 1 1; 0 0 1 1" fill="freeze" /><g transform="translate(155.25,218) scale(1,1) translate(158.25,86)"><g id="矩形 1" transform="matrix(1,0,0,1,-158.49,-86.314)"><rect ry="18" rx="18" height="30" width="30" y="0" x="0" fill="#ff8445" fill-opacity="1"><animate repeatCount="indefinite" attributeName="x" dur="0.725s" begin="0.2s" calcMode="spline" values="0; 0" keyTimes="0; 1" keySplines="0.333 0 0.667 1" fill="freeze" /><animate repeatCount="indefinite" attributeName="y" dur="0.725s" begin="0.2s" calcMode="spline" values="0; -150" keyTimes="0; 1" keySplines="0.333 0 0.667 1" fill="freeze" /><animate repeatCount="indefinite" attributeName="width" dur="0.725s" begin="0.2s" calcMode="spline" values="30; 30; 30" keyTimes="0; 0.862; 1" keySplines="0.333 0 0.667 1; 0.333 0 0.667 1" fill="freeze" /><animate repeatCount="indefinite" attributeName="height" dur="0.725s" begin="0.2s" calcMode="spline" values="30; 80; 30" keyTimes="0; 0.862; 1" keySplines="0.333 0 0.667 1; 0.333 0 0.667 1" fill="freeze" /></rect></g></g></g><g opacity="0" id="形状图层 2"><animate repeatCount="indefinite" attributeName="opacity" dur="0.775s" begin="0.2s" calcMode="spline" values="0; 1; 1; 0" keyTimes="0; 0.774; 0.935; 1" keySplines="0 0 1 1; 0 0 1 1; 0 0 1 1" fill="freeze" /><g transform="translate(155.25,218) rotate(60) scale(1,1) translate(158.25,86)"><g id="矩形 1" transform="matrix(1,0,0,1,-158.49,-86.314)"><rect ry="18" rx="18" height="30" width="30" y="0" x="0" fill="#ff8445" fill-opacity="1"><animate repeatCount="indefinite" attributeName="x" dur="0.725s" begin="0.2s" calcMode="spline" values="0; 0" keyTimes="0; 1" keySplines="0.333 0 0.667 1" fill="freeze" /><animate repeatCount="indefinite" attributeName="y" dur="0.725s" begin="0.2s" calcMode="spline" values="0; -150" keyTimes="0; 1" keySplines="0.333 0 0.667 1" fill="freeze" /><animate repeatCount="indefinite" attributeName="width" dur="0.725s" begin="0.2s" calcMode="spline" values="30; 30; 30" keyTimes="0; 0.862; 1" keySplines="0.333 0 0.667 1; 0.333 0 0.667 1" fill="freeze" /><animate repeatCount="indefinite" attributeName="height" dur="0.725s" begin="0.2s" calcMode="spline" values="30; 80; 30" keyTimes="0; 0.862; 1" keySplines="0.333 0 0.667 1; 0.333 0 0.667 1" fill="freeze" /></rect></g></g></g><g opacity="0" id="形状图层 3"><animate repeatCount="indefinite" attributeName="opacity" dur="0.775s" begin="0.2s" calcMode="spline" values="0; 1; 1; 0" keyTimes="0; 0.774; 0.935; 1" keySplines="0 0 1 1; 0 0 1 1; 0 0 1 1" fill="freeze" /><g transform="translate(155.25,218) rotate(120) scale(1,1) translate(158.25,86)"><g id="矩形 1" transform="matrix(1,0,0,1,-158.49,-86.314)"><rect ry="18" rx="18" height="30" width="30" y="0" x="0" fill="#ff8445" fill-opacity="1"><animate repeatCount="indefinite" attributeName="x" dur="0.725s" begin="0.2s" calcMode="spline" values="0; 0" keyTimes="0; 1" keySplines="0.333 0 0.667 1" fill="freeze" /><animate repeatCount="indefinite" attributeName="y" dur="0.725s" begin="0.2s" calcMode="spline" values="0; -150" keyTimes="0; 1" keySplines="0.333 0 0.667 1" fill="freeze" /><animate repeatCount="indefinite" attributeName="width" dur="0.725s" begin="0.2s" calcMode="spline" values="30; 30; 30" keyTimes="0; 0.862; 1" keySplines="0.333 0 0.667 1; 0.333 0 0.667 1" fill="freeze" /><animate repeatCount="indefinite" attributeName="height" dur="0.725s" begin="0.2s" calcMode="spline" values="30; 80; 30" keyTimes="0; 0.862; 1" keySplines="0.333 0 0.667 1; 0.333 0 0.667 1" fill="freeze" /></rect></g></g></g><g opacity="0" id="形状图层 4"><animate repeatCount="indefinite" attributeName="opacity" dur="0.775s" begin="0.2s" calcMode="spline" values="0; 1; 1; 0" keyTimes="0; 0.774; 0.935; 1" keySplines="0 0 1 1; 0 0 1 1; 0 0 1 1" fill="freeze" /><g transform="translate(155.25,218) rotate(180) scale(1,1) translate(158.25,86)"><g id="矩形 1" transform="matrix(1,0,0,1,-158.49,-86.314)"><rect ry="18" rx="18" height="30" width="30" y="0" x="0" fill="#ff8445" fill-opacity="1"><animate repeatCount="indefinite" attributeName="x" dur="0.725s" begin="0.2s" calcMode="spline" values="0; 0" keyTimes="0; 1" keySplines="0.333 0 0.667 1" fill="freeze" /><animate repeatCount="indefinite" attributeName="y" dur="0.725s" begin="0.2s" calcMode="spline" values="0; -150" keyTimes="0; 1" keySplines="0.333 0 0.667 1" fill="freeze" /><animate repeatCount="indefinite" attributeName="width" dur="0.725s" begin="0.2s" calcMode="spline" values="30; 30; 30" keyTimes="0; 0.862; 1" keySplines="0.333 0 0.667 1; 0.333 0 0.667 1" fill="freeze" /><animate repeatCount="indefinite" attributeName="height" dur="0.725s" begin="0.2s" calcMode="spline" values="30; 80; 30" keyTimes="0; 0.862; 1" keySplines="0.333 0 0.667 1; 0.333 0 0.667 1" fill="freeze" /></rect></g></g></g><g opacity="0" id="形状图层 5"><animate repeatCount="indefinite" attributeName="opacity" dur="0.775s" begin="0.2s" calcMode="spline" values="0; 1; 1; 0" keyTimes="0; 0.774; 0.935; 1" keySplines="0 0 1 1; 0 0 1 1; 0 0 1 1" fill="freeze" /><g transform="translate(155.25,218) rotate(240) scale(1,1) translate(158.25,86)"><g id="矩形 1" transform="matrix(1,0,0,1,-158.49,-86.314)"><rect ry="18" rx="18" height="30" width="30" y="0" x="0" fill="#ff8445" fill-opacity="1"><animate repeatCount="indefinite" attributeName="x" dur="0.725s" begin="0.2s" calcMode="spline" values="0; 0" keyTimes="0; 1" keySplines="0.333 0 0.667 1" fill="freeze" /><animate repeatCount="indefinite" attributeName="y" dur="0.725s" begin="0.2s" calcMode="spline" values="0; -150" keyTimes="0; 1" keySplines="0.333 0 0.667 1" fill="freeze" /><animate repeatCount="indefinite" attributeName="width" dur="0.725s" begin="0.2s" calcMode="spline" values="30; 30; 30" keyTimes="0; 0.862; 1" keySplines="0.333 0 0.667 1; 0.333 0 0.667 1" fill="freeze" /><animate repeatCount="indefinite" attributeName="height" dur="0.725s" begin="0.2s" calcMode="spline" values="30; 80; 30" keyTimes="0; 0.862; 1" keySplines="0.333 0 0.667 1; 0.333 0 0.667 1" fill="freeze" /></rect></g></g></g><g opacity="0" id="形状图层 6"><animate repeatCount="indefinite" attributeName="opacity" dur="0.775s" begin="0.2s" calcMode="spline" values="0; 1; 1; 0" keyTimes="0; 0.774; 0.935; 1" keySplines="0 0 1 1; 0 0 1 1; 0 0 1 1" fill="freeze" /><g transform="translate(155.25,218) rotate(300) scale(1,1) translate(158.25,86)"><g id="矩形 1" transform="matrix(1,0,0,1,-158.49,-86.314)"><rect ry="18" rx="18" height="30" width="30" y="0" x="0" fill="#ff8445" fill-opacity="1"><animate repeatCount="indefinite" attributeName="x" dur="0.725s" begin="0.2s" calcMode="spline" values="0; 0" keyTimes="0; 1" keySplines="0.333 0 0.667 1" fill="freeze" /><animate repeatCount="indefinite" attributeName="y" dur="0.725s" begin="0.2s" calcMode="spline" values="0; -150" keyTimes="0; 1" keySplines="0.333 0 0.667 1" fill="freeze" /><animate repeatCount="indefinite" attributeName="width" dur="0.725s" begin="0.2s" calcMode="spline" values="30; 30; 30" keyTimes="0; 0.862; 1" keySplines="0.333 0 0.667 1; 0.333 0 0.667 1" fill="freeze" /><animate repeatCount="indefinite" attributeName="height" dur="0.725s" begin="0.2s" calcMode="spline" values="30; 80; 30" keyTimes="0; 0.862; 1" keySplines="0.333 0 0.667 1; 0.333 0 0.667 1" fill="freeze" /></rect></g></g></g><g id="手"><g transform="translate(325,287.79)"><animateTransform repeatCount="indefinite" type="translate" attributeName="transform" dur="0.9s" begin="0.025s" calcMode="spline" values="325 287.79; 528 245.79; 311 287.79; 325 287.79; 325 287.79" keyTimes="0; 0.167; 0.861; 0.889; 1" keySplines="0.333 0 0.667 1; 0.333 0 0.667 1; 0.333 0 0.667 1; 0 0 1 1" fill="freeze" /><g transform="rotate(0)"><animateTransform repeatCount="indefinite" type="rotate" attributeName="transform" dur="0.9s" begin="0.025s" calcMode="spline" values="0; 28; -25; 0" keyTimes="0; 0.167; 0.889; 1" keySplines="0.333 0 0.667 1; 0.193 0.002 0.361 1; 0.333 0 0.667 1" fill="freeze" /><g transform="scale(1,1)"><animateTransform repeatCount="indefinite" type="scale" attributeName="transform" dur="0.9s" begin="0.025s" calcMode="spline" values="1 1; 1.08 1.08; 0.95 0.95; 1 1; 1 1" keyTimes="0; 0.167; 0.861; 0.889; 1" keySplines="0.333 0 0.667 1; 0.333 0 0.667 1; 0.333 0 0.667 1; 0.333 0 0.667 1" fill="freeze" /><g transform="translate(-170,-180)"><use clip-path="url(#cp-340-360)" height="360" width="340" y="0" x="0" xlink:href="#comp_1_ba400386-23e7-4917-9feb-1e5242d3491b" href="#comp_1_ba400386-23e7-4917-9feb-1e5242d3491b" /></g></g></g></g></g></g></defs><g transform="matrix(0.55,0,0,0.55,-2.5,0.2)" id="点击"><use clip-path="url(#cp-700-472)" height="472" width="700" y="0" x="0" xlink:href="#comp_0_26a36fce-28ea-4899-b299-c07f90580991" href="#comp_0_26a36fce-28ea-4899-b299-c07f90580991" /></g></svg>