<svg width="223" height="194" viewBox="0 0 223 194" fill="none" xmlns="http://www.w3.org/2000/svg">
<path d="M220.778 31.6663C222.538 37.9823 222.489 49.1713 220.67 56.2063C219.822 59.4843 216.006 68.4663 212.19 76.1663C207.716 85.1943 204.316 93.7173 202.618 100.166C199.692 111.275 197.676 115.811 193.818 119.963C190.444 123.595 183.705 126.616 178.919 126.644C177.655 126.651 176.391 126.659 175.127 126.666C175.945 128.083 176.764 129.499 177.582 130.916C181.317 137.382 185.79 151.087 187.593 161.592C189.745 174.132 189.806 192.5 187.698 193.309C184.338 194.598 183.521 191.975 182.906 177.917C181.772 152.012 174.337 131.819 162.188 121.647C160.535 120.263 158.882 118.879 157.229 117.495C155.477 119.028 153.724 120.561 151.972 122.094C149.081 124.623 143.262 128.347 139.042 130.37C136.484 131.596 133.927 132.822 131.369 134.048C131.135 137.164 130.902 140.279 130.668 143.395C130.283 148.536 130.27 154.637 130.64 156.954C132.562 168.998 140.204 168.499 142.206 156.199C143.535 148.035 144.034 147.666 153.762 147.666C163.617 147.666 165.211 148.695 165.211 155.054C165.211 171.806 157.7 185.382 145.333 190.986C138.151 194.24 125.528 194.018 118.036 190.506C107.242 185.446 99.5427 175.791 95.8347 162.666C94.9797 159.641 93.6286 152.068 92.8316 145.836C92.0346 139.604 91.2327 134.384 91.0477 134.235C90.8627 134.086 87.2876 132.336 83.1036 130.346C78.9196 128.356 73.1736 124.641 70.3366 122.09C68.6166 120.544 66.8987 118.998 65.1787 117.452C63.6837 118.677 62.1887 119.901 60.6937 121.126C48.0957 131.449 41.1486 149.626 38.9456 178.028C37.7556 193.366 37.0036 195.399 33.5756 192.554C32.1876 191.402 32.0627 189.63 32.6667 179.692C33.8367 160.438 37.2567 145.637 43.3507 133.445C44.9237 130.298 46.2106 127.486 46.2106 127.195C46.2106 126.904 44.7237 126.666 42.9067 126.666C37.6867 126.666 29.5846 122.07 26.2436 117.214C24.5276 114.72 21.8337 107.903 19.7297 100.73C17.5267 93.2214 13.6746 83.5764 9.75263 75.7494C1.94663 60.1714 -0.0423219 53.6343 0.000678053 43.7003C0.0426781 34.1413 2.23863 26.4773 7.08063 18.9983C20.8786 -2.31466 46.7797 -6.02467 66.9687 10.4193C68.7297 11.8533 70.4897 13.2883 72.2507 14.7223C74.7227 13.5333 77.1947 12.3444 79.6667 11.1554C89.2837 6.53035 98.2026 4.70434 111.301 4.68334C123.66 4.66334 133.828 6.89734 143.672 11.7963C145.821 12.8663 147.97 13.9353 150.119 15.0053C151.565 13.6723 153.011 12.3393 154.457 11.0063C159.743 6.13334 168.321 1.94834 175.883 0.550343C194.999 -2.98366 214.981 10.8653 220.778 31.6663ZM8.13666 30.4793C6.03266 35.8583 5.58969 48.8043 7.29169 55.1663C7.87969 57.3663 11.4586 65.4663 15.2436 73.1663C19.3546 81.5283 23.5207 91.9193 25.5887 98.9683C30.4427 115.51 34.9876 120.666 44.7106 120.666C50.4176 120.666 60.2106 115.546 60.2106 112.563C60.2106 112.148 58.6616 109.19 56.7676 105.988C54.8736 102.786 52.0737 96.5663 50.5467 92.1663C47.9667 84.7343 47.7687 83.0293 47.7407 68.1663C47.7087 51.0903 48.0067 49.4963 53.5057 37.3173C54.5367 35.0343 55.5676 32.7503 56.5986 30.4673C55.7836 29.8113 54.9696 29.1564 54.1546 28.5004C46.9846 22.7294 38.8127 21.3013 31.6317 24.5623C27.0107 26.6613 24.0186 30.0513 21.2376 36.3383C19.2016 40.9423 16.9256 41.8723 15.2696 38.7773C13.8866 36.1923 19.2557 25.4963 23.5997 22.1833C33.5227 14.6153 46.6296 14.8683 56.5446 22.8203C57.8226 23.8453 59.1006 24.8703 60.3786 25.8953C61.5156 24.7933 62.6526 23.6924 63.7896 22.5904C64.9266 21.4884 66.0636 20.3864 67.2006 19.2844C66.4716 18.5084 65.7416 17.7323 65.0126 16.9563C58.7786 10.3203 44.7406 4.82633 37.3406 6.12633C23.1136 8.62633 13.5697 16.5843 8.13666 30.4793ZM54.7266 51.6663C52.8256 59.4163 52.8816 75.3203 54.8406 83.9693C59.0206 102.419 69.8586 116.985 85.1066 124.647C86.5716 125.383 88.0376 126.12 89.5026 126.856C89.3136 125.69 89.1246 124.523 88.9356 123.357C88.6236 121.432 87.1696 117.002 85.7056 113.512C80.3866 100.834 80.6097 101.657 82.2247 100.637C84.6917 99.0784 85.5536 99.9194 89.4616 107.699C94.1026 116.938 96.4936 126.234 98.7126 143.666C99.6576 151.091 101.271 159.884 102.296 163.205C107.126 178.849 120.546 188.84 134.758 187.373C148.301 185.975 157.161 175.711 158.887 159.416C159.09 157.499 159.293 155.583 159.496 153.666C157.615 153.666 155.734 153.666 153.853 153.666C151.972 153.666 150.092 153.666 148.211 153.666C148.204 154.749 148.196 155.833 148.189 156.916C148.16 161.21 145.01 167.993 142.097 170.033C140.815 170.931 138.126 171.666 136.123 171.666C126.034 171.666 122.38 159.884 125.261 136.64C127.098 121.819 132.5 104.524 136.393 101.001C138.131 99.4284 138.397 99.4233 139.903 100.929C141.409 102.435 141.329 103.014 138.841 108.557C136.057 114.76 133.241 123.218 133.222 125.433C133.203 127.676 143.259 121.763 149.359 115.944C165.605 100.448 172.612 76.4613 167.7 53.1663C163.353 32.5523 148.095 17.1503 127.123 12.2073C113.439 8.98132 93.4047 10.9913 82.0417 16.7303C67.9037 23.8703 58.6386 35.7203 54.7266 51.6663ZM159.235 14.7674C157.022 16.5454 155.211 18.2423 155.211 18.5363C155.211 18.8303 156.642 20.5473 158.39 22.3513C159.45 23.4443 160.509 24.5373 161.569 25.6303C162.674 24.7873 163.779 23.9453 164.884 23.1023C176.167 14.4963 189.172 14.4773 198.914 23.0533C205.346 28.7153 209.512 38.6964 205.961 39.9354C203.656 40.7394 202.387 39.5463 199.693 34.0393C193.715 21.8203 179.153 19.1133 168.342 28.2103C167.412 28.9933 166.481 29.7753 165.551 30.5583C166.674 32.8863 167.797 35.2133 168.92 37.5413C173.93 47.9253 175.513 56.8203 174.903 71.1663C174.303 85.2853 171.532 95.2904 165.259 105.986C163.926 108.259 162.592 110.533 161.259 112.806C162.117 113.601 162.973 114.395 163.831 115.19C170.103 121.002 180.885 122.171 187.142 117.715C191.2 114.826 193.312 110.516 197.098 97.4043C198.906 91.1423 203.135 80.6883 207.211 72.4043C215.495 55.5683 217.324 47.7953 215.504 37.1693C211.46 13.5593 188.817 -0.166664 168.931 8.93734C165.811 10.3653 161.448 12.9894 159.235 14.7674Z" fill="#030303"/>
<path d="M87.5417 70.8955C89.7917 76.4865 86.2746 81.6665 80.2286 81.6665C75.7386 81.6665 73.2107 79.0485 73.2107 74.3985C73.2107 71.3015 77.1087 66.6665 79.7147 66.6665C81.9357 66.6665 86.9247 69.3625 87.5417 70.8955Z" fill="#030303"/>
<path d="M121.941 107.225C124.435 108.859 124.621 109.469 123.277 111.593C122.519 112.791 121.505 112.827 116.98 111.814C112.884 110.897 110.315 110.879 106.302 111.74C100.605 112.962 98.7596 112.25 99.3726 109.065C100.185 104.848 116.307 103.533 121.941 107.225Z" fill="#030303"/>
<path d="M147.183 69.8672C150.88 73.8362 149.271 79.5522 143.879 81.6022C138.53 83.6362 133.899 79.9643 134.396 74.0853C134.998 66.9623 142.248 64.5702 147.183 69.8672Z" fill="#030303"/>
<path d="M118.337 122.734C119.586 123.403 120.217 124.606 120.022 125.952C119.733 127.954 119.163 128.097 111.748 128.021C105.396 127.956 103.576 127.596 102.748 126.244C101.949 124.938 102.156 124.218 103.652 123.107C105.936 121.411 115.415 121.17 118.337 122.734Z" fill="#030303"/>
<path d="M116.128 138.621C117.576 139.396 118.226 140.551 118.022 141.984C117.743 143.945 117.114 144.166 111.82 144.166C107.333 144.166 105.67 143.756 104.842 142.444C104.057 141.2 104.063 140.414 104.862 139.615C106.559 137.918 113.646 137.293 116.128 138.621Z" fill="#030303"/>
</svg>
