<svg width="187" height="200" viewBox="0 0 187 200" fill="none" xmlns="http://www.w3.org/2000/svg">
<path d="M184.564 65.3884C186.802 72.1684 186.933 77.5314 185.016 83.9564C181.322 96.3384 167.955 103.784 158.344 98.8144C156.67 97.9484 155.154 97.3884 154.973 97.5694C154.792 97.7504 153.94 100.937 153.078 104.652C151.404 111.872 147.801 119.84 143.802 125.168C142.448 126.972 141.486 128.772 141.664 129.168C141.842 129.564 144.127 133.117 146.739 137.064C152.317 145.492 156.668 155.884 159.492 167.525C161.744 176.807 163.796 194.84 162.915 197.615C162.377 199.311 158.818 199.389 92.6672 199.145C69.4402 199.059 46.2142 198.974 22.9872 198.888C23.0392 195.935 23.0922 192.983 23.1442 190.03C23.4992 170.011 31.1972 146.395 41.6872 133.139C42.6762 131.889 43.6652 130.64 44.6542 129.39C43.3222 127.395 41.9892 125.4 40.6572 123.405C36.7432 117.544 33.2382 108.607 31.9242 101.138C31.1882 96.9564 31.0182 96.8694 27.4872 98.8884C22.1392 101.945 12.8242 99.9754 7.14519 94.5854C1.76719 89.4814 0.0121904 84.7644 0.000190392 75.3884C-0.00980961 67.7404 0.363193 66.0404 3.71819 58.4294C9.64019 44.9964 22.2642 24.7304 28.9872 17.8624C32.6232 14.1474 37.3482 10.5874 40.9802 8.82439C46.1912 6.29539 48.2142 5.89439 56.4802 5.75439C64.1822 5.62339 67.4112 5.06139 73.4872 2.78939C80.1862 0.285393 82.2692 -0.0126083 92.9872 0.000391723C103.827 0.0143917 105.664 0.289392 111.987 2.84639C117.898 5.23739 120.543 5.70139 128.987 5.82939C140.265 6.00039 145.609 7.7894 153.043 13.8804C162.678 21.7754 178.94 48.3494 184.564 65.3884ZM6.84119 66.8884C6.11119 69.0884 5.64919 73.3634 5.81419 76.3884C6.36519 86.5154 11.3982 93.0304 19.5132 94.1184C29.6142 95.4734 34.0812 85.9284 36.9362 56.8884C37.7472 48.6384 39.0862 39.6384 39.9132 36.8884C41.8612 30.4084 47.5102 21.0364 52.7982 15.5124C54.1942 14.0534 55.5912 12.5954 56.9872 11.1364C55.4872 11.3554 53.9872 11.5744 52.4872 11.7934C41.2152 13.4374 32.1542 21.0394 22.1082 37.2794C15.7752 47.5174 8.74019 61.1604 6.84119 66.8884ZM29.6032 180.888C29.1242 184.188 28.6762 188.35 28.6092 190.138C28.5682 191.221 28.5282 192.305 28.4872 193.388C33.4082 193.388 38.3292 193.388 43.2502 193.388C48.1712 193.388 53.0932 193.388 58.0142 193.388C58.4212 191.676 58.8272 189.963 59.2342 188.251C60.6422 182.323 65.3382 174.532 69.7322 170.835C82.5982 160.009 101.594 159.574 114.526 169.807C120.091 174.211 124.244 180.544 126.215 187.634C126.748 189.552 127.282 191.47 127.815 193.388C132.745 193.388 137.674 193.388 142.604 193.388C147.534 193.388 152.463 193.388 157.393 193.388C157.22 191.638 157.047 189.888 156.874 188.138C154.938 168.543 147.605 146.944 139.658 137.424C138.738 136.322 137.819 135.221 136.899 134.119C134.694 135.628 132.49 137.138 130.285 138.647C119.044 146.343 108.166 149.611 93.4872 149.7C78.1462 149.793 65.4902 145.965 54.5232 137.914C51.8812 135.974 49.3222 134.388 48.8372 134.388C47.4922 134.388 41.6412 143.771 37.7902 152.107C34.1622 159.959 31.0582 170.873 29.6032 180.888ZM39.6092 79.3884C36.1712 92.9434 37.1502 103.129 43.0472 115.152C63.2662 156.376 130.466 152.216 145.533 108.807C147.926 101.912 149.334 87.0304 147.689 86.0134C147.098 85.6484 143.456 85.8704 139.596 86.5074C113.615 90.7984 93.3842 70.0434 95.9172 41.6974C96.9792 29.8174 101.133 18.5284 107.015 11.5374C107.895 10.4924 108.773 9.44739 109.653 8.40239C108.811 8.08239 107.971 7.76239 107.129 7.44239C102.548 5.70039 90.2282 5.13939 83.4872 6.36539C69.0872 8.98439 55.7602 18.6094 49.2072 31.1244C45.3002 38.5864 43.9772 44.4564 42.5002 60.8884C41.9562 66.9384 40.6552 75.2634 39.6092 79.3884ZM66.8532 184.85C62.5792 194.029 60.6172 193.388 92.9872 193.388C115.126 193.388 121.485 193.109 121.477 192.138C121.459 189.773 116.357 179.883 113.674 177.012C109.367 172.402 99.9392 168.39 93.4152 168.389C82.0332 168.387 71.4712 174.933 66.8532 184.85ZM102.528 36.6904C101.353 43.2764 102.072 54.5534 104.038 60.3884C108.748 74.3614 122.21 82.7544 137.107 81.0034C145.012 80.0744 145.762 79.6044 145.114 75.9954C144.807 74.2864 144.065 67.7134 143.466 61.3884C141.876 44.5964 140.83 39.5984 137.464 32.7234C132.366 22.3104 119.33 10.0834 115.069 11.7184C111.129 13.2304 104.281 26.8664 102.528 36.6904ZM133.843 11.7254C132.224 11.5074 130.606 11.2894 128.987 11.0714C130.412 12.6254 131.837 14.1814 133.262 15.7354C143.243 26.6234 147.042 36.2234 148.554 54.3884C150.343 75.8784 153.487 87.5274 158.674 91.8924C166.258 98.2744 178.325 90.7434 179.93 78.6274C181.097 69.8174 177.367 60.0744 164.827 39.1704C154.108 21.3024 144.991 13.2264 133.843 11.7254Z" fill="#030303"/>
<path d="M121.172 107.388C123.097 107.388 123.487 107.914 123.487 110.506C123.487 114.622 117.413 120.793 111.9 122.277C108.61 123.163 107.569 124.073 106.136 127.322C103.874 132.45 98.9083 135.555 92.9693 135.555C87.0103 135.555 82.5843 132.84 80.0413 127.627C78.6663 124.808 77.1603 123.227 75.4873 122.849C68.0743 121.173 62.4873 115.629 62.4873 109.95C62.4873 107.745 62.8863 107.307 64.6613 107.568C65.8573 107.744 67.5673 109.238 68.4603 110.888C69.3533 112.538 71.7943 114.734 73.8833 115.767C77.0863 117.351 78.2693 117.471 81.4223 116.526C85.8933 115.186 88.2583 112.796 89.0443 108.822C89.5593 106.217 89.2083 105.665 85.9163 103.905C77.6783 99.5014 74.9063 89.3784 80.7483 85.0344C83.7933 82.7704 93.7093 81.6444 100.078 82.8394C108.507 84.4204 111.119 92.3214 105.375 98.8634C103.663 100.812 100.963 103.175 99.3753 104.113C95.9293 106.149 95.6483 109.051 98.5413 112.729C103.496 119.028 113.777 118.042 117.162 110.943C118.383 108.382 119.504 107.388 121.172 107.388ZM85.0693 88.9954C84.1993 89.3294 83.4873 90.5134 83.4873 91.6274C83.4873 94.0244 89.8993 100.389 92.3083 100.384C95.0423 100.378 100.437 96.5934 101.718 93.7814C102.74 91.5384 102.639 90.9724 101.006 89.7784C99.0733 88.3654 88.1153 87.8264 85.0693 88.9954ZM85.6823 121.388C83.7493 121.388 84.3063 124.066 86.8573 127.032C88.6623 129.131 90.1243 129.788 92.9873 129.788C95.8503 129.788 97.3123 129.131 99.1173 127.032C100.421 125.516 101.487 123.938 101.487 123.525C101.487 123.112 99.4063 121.306 96.8623 119.513C95.3203 118.426 93.7793 117.34 92.2373 116.253C91.3443 117.109 90.4503 117.965 89.5573 118.821C88.0833 120.233 86.3393 121.388 85.6823 121.388Z" fill="#030303"/>
<path d="M126.654 59.2272C129.742 65.4122 125.291 71.3822 118.675 69.9292C112.963 68.6752 110.874 62.7082 114.522 58.0702C116.388 55.6982 117.329 55.3292 120.85 55.5862C124.408 55.8462 125.22 56.3552 126.654 59.2272Z" fill="#030303"/>
<path d="M72.7782 60.3882C73.0812 61.2132 73.3652 61.9342 73.4082 61.9892C73.4512 62.0442 73.0082 63.4642 72.4222 65.1442C71.0132 69.1852 66.6332 71.1062 62.6172 69.4422C54.9442 66.2642 57.1652 55.3882 65.4872 55.3882C69.1022 55.3882 71.5592 57.0722 72.7782 60.3882Z" fill="#030303"/>
</svg>
