<svg width="175" height="199" viewBox="0 0 175 199" fill="none" xmlns="http://www.w3.org/2000/svg">
<path d="M169.845 97.083C174.298 98.038 174.894 98.465 174.894 100.7C174.894 101.545 174.894 102.39 174.894 103.235C172.394 103.001 169.894 102.766 167.394 102.532C161.459 101.976 159.889 102.108 159.87 103.165C159.857 103.899 158.782 107.089 157.481 110.253C156.692 112.171 155.904 114.088 155.115 116.006C157.162 117.088 159.207 118.171 161.254 119.253C165.616 121.56 167.487 123.152 167.714 124.754C168.218 128.304 165.585 128.407 159.667 125.067C156.678 123.38 153.607 122 152.842 122C152.077 122 148.897 124.529 145.773 127.62C143.88 129.493 141.986 131.367 140.093 133.24C141.366 135.21 142.64 137.18 143.913 139.15C152.471 152.391 158.822 173.13 159.18 189C159.251 192.167 159.323 195.333 159.394 198.5C135.561 198.5 111.727 198.5 87.8939 198.5C64.0609 198.5 40.2269 198.5 16.3939 198.5C16.4549 195.167 16.5169 191.833 16.5779 188.5C16.7049 181.584 17.5389 175.485 19.2779 168.723C21.8009 158.915 28.5399 143.508 33.1349 137.044C33.9539 135.892 34.7729 134.739 35.5919 133.587C33.5279 131.523 31.4639 129.459 29.3999 127.395C27.3359 125.331 25.2719 123.267 23.2079 121.203C20.9899 122.408 18.7709 123.613 16.5529 124.818C10.3429 128.192 9.78688 128.322 8.23188 126.767C6.04188 124.577 7.44486 122.835 14.6909 118.746C18.5529 116.566 19.9009 115.268 19.5089 114.109C19.2099 113.224 18.1619 110.099 17.1799 107.165C16.5849 105.387 15.9889 103.608 15.3939 101.83C13.7269 102.033 12.0609 102.236 10.3939 102.439C7.64386 102.774 4.55587 103.15 3.53187 103.274C1.16787 103.561 -1.00612 100.5 0.494878 98.999C1.07588 98.418 4.26787 97.437 7.58787 96.82C9.59987 96.446 11.6129 96.071 13.6249 95.697C13.8189 92.164 14.0119 88.631 14.2059 85.098C14.5249 79.269 15.5149 71.855 16.4049 68.622C17.9039 63.178 17.8979 61.863 16.3259 50.809C14.3229 36.722 14.7849 17.454 17.3219 9.305C19.1239 3.514 22.7069 0 26.8069 0C32.5509 0 48.3429 9.264 57.5399 18.03C59.0249 19.445 60.5089 20.86 61.9939 22.275C64.5609 21.656 67.1269 21.038 69.6939 20.419C79.9019 17.958 95.8939 17.94 105.589 20.379C107.987 20.982 110.387 21.586 112.785 22.189C115.22 20.13 117.654 18.071 120.089 16.012C133.776 4.43899 146.803 -1.729 152.281 0.766998C159.859 4.22 162.962 26.989 159.284 52.147C157.773 62.486 157.782 63.534 159.434 69.329C160.402 72.723 161.41 80.113 161.675 85.75C162.031 93.329 162.5 96 163.476 96C164.202 96 167.068 96.487 169.845 97.083ZM21.9159 72.202C20.8639 76.216 19.9789 82.967 19.9489 87.205C19.9309 89.773 19.9119 92.341 19.8939 94.909C20.9769 95.073 22.0609 95.238 23.1439 95.402C24.9319 95.673 29.6188 96.142 33.5598 96.446C42.3428 97.122 43.8939 97.677 43.8939 100.138C43.8939 102.981 41.9939 103.282 31.8289 102.046C26.7709 101.431 22.4209 101.14 22.1619 101.399C21.4709 102.09 24.8719 111.868 26.0589 112.602C26.6159 112.946 30.6908 112.197 35.1158 110.937C42.8998 108.721 43.2059 108.706 44.5109 110.491C46.4549 113.149 44.9389 114.42 37.3949 116.462C33.7209 117.456 30.8939 118.776 30.8939 119.495C30.8939 122.693 45.9229 133.526 56.0919 137.658C75.1219 145.391 101.791 145.162 120.979 137.1C131.076 132.858 144.894 122.437 144.894 119.065C144.894 118.699 141.519 117.408 137.394 116.194C129.821 113.966 128.392 112.491 131.393 110.001C132.607 108.993 134.429 109.238 140.981 111.288C143.677 112.132 146.374 112.975 149.07 113.819C149.871 112.099 150.671 110.38 151.472 108.66C154.959 101.171 154.788 100.631 149.144 101.333C133.31 103.301 131.953 103.318 131.275 101.55C130.123 98.547 133.101 97.166 143.105 96.067C148.446 95.48 153.508 95 154.355 95C156.399 95 156.43 84.196 154.415 74.685C151.463 60.754 143.92 49.272 130.093 37.665C127.519 35.504 126.943 34.41 127.474 32.697C128.586 29.109 133.943 18.816 137.075 14.25C138.678 11.913 139.707 10 139.361 10C137.855 10 127.628 17.509 121.554 23.074C119.348 25.096 117.141 27.118 114.935 29.14C112.012 28.385 109.087 27.631 106.164 26.876C94.2419 23.799 80.4989 23.824 69.1659 26.943C66.4229 27.698 63.6809 28.452 60.9379 29.207C58.8469 27.304 56.7569 25.401 54.6659 23.498C48.9309 18.277 37.7668 10 36.4608 10C36.1628 10 37.4248 12.363 39.2668 15.25C43.4498 21.808 46.9139 28.581 47.9729 32.275C48.6589 34.668 48.3679 35.444 46.0899 37.276C39.2439 42.782 30.0939 53.126 27.1109 58.733C25.3049 62.127 22.9679 68.188 21.9159 72.202ZM21.5219 17C20.6669 21.423 21.5369 50.043 22.5569 51.063C23.2049 51.711 25.2049 49.975 28.3919 46.002C31.0589 42.677 35.1939 38.357 37.5789 36.402C39.0249 35.217 40.4699 34.033 41.9159 32.848C40.5479 30.218 39.1799 27.589 37.8119 24.959C33.9189 17.475 26.6969 8 24.8869 8C24.0459 8 22.4219 12.341 21.5219 17ZM23.4409 177.951C22.6889 182.103 22.0329 187.199 21.9839 189.277C21.9539 190.536 21.9239 191.796 21.8939 193.055C26.6189 192.963 31.3449 192.869 36.0699 192.777C40.7949 192.685 45.5199 192.592 50.2449 192.5C50.6199 190.833 50.9959 189.167 51.3709 187.5C57.8319 158.791 93.3569 148.451 114.189 169.215C119.445 174.454 123.491 182.13 124.483 188.743C124.696 190.162 124.908 191.581 125.121 193C129.928 193 134.735 193 139.542 193C144.349 193 149.156 193 153.963 193C153.761 191.25 153.559 189.5 153.357 187.75C151.194 169.008 144.927 150.499 137.306 140.345C136.517 139.293 135.727 138.243 134.938 137.191C132.681 138.309 130.423 139.426 128.166 140.544C116.616 146.263 108.17 148.155 91.6159 148.733C71.8969 149.421 62.0539 147.545 47.4849 140.321C42.0779 137.64 40.3859 137.179 39.7009 138.198C31.8289 149.903 25.8919 164.418 23.4409 177.951ZM58.5619 184.233C57.7319 186.58 57.0159 189.513 56.9729 190.75C56.9469 191.5 56.9199 192.25 56.8939 193C67.2639 193 77.6349 193 88.0049 193C98.3749 193 108.747 193 119.117 193C118.886 191.768 118.654 190.537 118.423 189.305C116.685 180.043 109.239 170.881 100.016 166.658C93.3779 163.618 82.2539 163.732 75.1239 166.913C68.7479 169.757 60.7099 178.162 58.5619 184.233ZM137.209 26.059C136.101 28.142 134.992 30.225 133.884 32.308C135.997 34.34 138.112 36.372 140.225 38.404C143.712 41.757 147.963 46.443 149.671 48.819C150.706 50.259 151.742 51.699 152.777 53.139C153.046 51.866 153.317 50.592 153.586 49.319C155.77 38.998 153.84 9.321 150.865 7.482C149.768 6.804 141.391 18.201 137.209 26.059Z" fill="#030303"/>
<path d="M113.42 109C116.552 109 116.729 111.912 113.878 116.525C109.685 123.31 98.0578 125.101 90.9698 120.054C89.8898 119.285 88.8088 118.515 87.7288 117.746C86.6868 118.517 85.6428 119.287 84.6008 120.058C80.4088 123.157 72.4518 123.833 67.5478 121.506C63.6418 119.653 59.8938 114.573 59.8938 111.132C59.8938 108.255 64.4808 108.123 65.3858 110.974C67.1518 116.539 76.2398 118.875 81.1358 115.024C85.3698 111.694 85.1938 109.549 80.2308 104.029C76.7998 100.213 75.8298 98.4048 76.0748 96.2758C77.0178 88.0658 98.7618 88.0178 99.7078 96.2238C99.9498 98.3208 98.9508 100.094 95.3728 103.919C90.2138 109.435 90.0728 111.422 94.5878 114.974C97.3718 117.164 102.825 117.642 105.949 115.97C107.007 115.404 108.564 113.604 109.409 111.97C110.484 109.89 111.688 109 113.42 109ZM83.5608 96.6668C82.4518 97.7758 82.7798 98.5448 85.4208 101.026C86.2628 101.817 87.1068 102.609 87.9488 103.4C88.8138 102.535 89.6798 101.669 90.5448 100.804C91.9728 99.3758 92.8328 97.7108 92.4578 97.1038C91.7228 95.9148 84.6598 95.5678 83.5608 96.6668Z" fill="#030303"/>
<path d="M65.6239 75.9999C68.3459 81.2809 64.4089 87.3999 58.2869 87.3999C51.1499 87.3999 47.6419 79.2499 52.4789 73.9059C56.0959 69.9099 63.0559 71.0179 65.6239 75.9999Z" fill="#030303"/>
<path d="M125.19 77.3539C126.254 82.9569 122.758 87.3999 117.287 87.3999C109.872 87.3999 106.559 78.8899 111.896 73.5529C115.86 69.5889 124.167 71.9639 125.19 77.3539Z" fill="#030303"/>
</svg>
