<svg width="176" height="199" viewBox="0 0 176 199" fill="none" xmlns="http://www.w3.org/2000/svg">
<path d="M116.506 91.4729C118.994 100.639 118.606 111.772 115.594 117.626C108.55 131.319 86.284 135.997 69.211 127.371C61.386 123.417 56.389 114.517 56.406 104.564C56.417 98.3379 60.088 84.3499 63.565 77.2869C66.927 70.4589 73.492 63.6679 78.927 61.3969C83.623 59.4349 92.085 59.6449 96.899 61.8439C105.399 65.7269 112.382 76.2789 116.506 91.4729ZM63.031 97.9729C62.175 102.471 63.1451 111.582 64.8251 114.831C70.9001 126.578 94.268 129.686 105.494 120.24C112.337 114.482 113.864 106.02 110.461 92.7139C107.177 79.8739 101.967 71.3239 95.381 67.9639C87.009 63.6929 77.526 66.6049 71.738 75.2249C68.879 79.4819 64.246 91.5879 63.031 97.9729Z" fill="#030303"/>
<path d="M105.028 106.384C107.33 107.267 106.561 110.658 103.47 113.259C99.9262 116.241 95.0252 117.3 90.6142 116.035C88.5192 115.434 86.3092 115.457 84.4672 116.099C78.9622 118.018 68.3992 113.266 68.3992 108.869C68.3992 105.756 70.8992 105.614 75.2302 108.48C77.4902 109.976 80.2552 110.989 81.5692 110.803C83.5692 110.52 83.9411 109.823 84.1971 105.888C84.4801 101.541 84.2931 101.169 80.6031 98.7267C76.0291 95.6997 73.0542 90.1967 73.9852 86.4877C75.0792 82.1277 77.9442 80.9727 87.6672 80.9727C95.7012 80.9727 96.7092 81.1927 98.9442 83.4277C100.294 84.7777 101.397 86.9157 101.395 88.1777C101.389 91.6207 97.8291 96.7857 93.8401 99.1397C90.5021 101.11 90.3172 101.493 90.5992 105.851C90.8662 109.963 91.1792 110.505 93.4412 110.769C94.9332 110.943 97.5692 109.99 99.8202 108.462C101.93 107.03 104.274 106.095 105.028 106.384ZM81.0352 87.2377C79.3512 87.9237 79.3122 88.2097 80.6352 90.2017C81.4402 91.4137 83.2441 93.2607 84.6451 94.3067C87.0811 96.1257 87.3182 96.1327 90.1272 94.4737C94.0332 92.1657 95.9442 89.1177 94.4312 87.6047C93.1562 86.3297 83.8872 86.0757 81.0352 87.2377Z" fill="#030303"/>
<path d="M44.5012 20.6139C45.5382 22.1859 46.3882 23.8499 46.3922 24.3109C46.3962 24.7719 42.9232 28.8759 38.6752 33.4309C31.4122 41.2189 30.7872 41.6559 28.2012 40.7539C26.6882 40.2269 24.0892 38.2439 22.4252 36.3489C19.8672 33.4359 19.3992 32.0799 19.3992 27.5729C19.3992 23.6819 19.9622 21.5259 21.4872 19.5879C27.6782 11.7179 38.9672 12.2209 44.5012 20.6139ZM27.5882 22.0119C25.0802 24.3489 24.6521 29.5689 26.7361 32.4189C28.4561 34.7709 28.9872 34.4979 34.7192 28.3149C36.3132 26.5959 37.9062 24.8759 39.5002 23.1569C38.7422 22.6259 37.9852 22.0959 37.2272 21.5649C34.1172 19.3869 30.2122 19.5679 27.5882 22.0119Z" fill="#030303"/>
<path d="M155.345 23.4345C157.244 29.8905 154.077 37.1475 147.978 40.3115C146.671 40.9895 145.365 41.6675 144.058 42.3455C143.211 41.1995 142.363 40.0555 141.516 38.9095C140.118 37.0195 136.528 33.1535 133.539 30.3185C131.727 28.6005 129.916 26.8815 128.104 25.1635C128.753 23.9125 129.403 22.6605 130.052 21.4095C135.546 10.8235 152.023 12.1425 155.345 23.4345ZM138.333 21.0075C135.483 22.5325 135.946 23.9485 141.037 29.2855C145.956 34.4425 147.795 34.6925 149.416 30.4285C152.065 23.4595 144.989 17.4455 138.333 21.0075Z" fill="#030303"/>
<path d="M61.0852 57.1468C64.1532 60.0288 64.0942 64.3678 60.9442 67.5178C57.9442 70.5178 54.5292 70.6488 51.0342 67.8998C47.7322 65.3028 47.4212 59.9508 50.3992 56.9728C53.0752 54.2968 58.1392 54.3798 61.0852 57.1468Z" fill="#030303"/>
<path d="M124.399 56.9727C125.628 58.2027 126.399 60.3057 126.399 62.4337C126.399 69.3287 118.761 72.4247 113.854 67.5177C110.854 64.5177 110.723 61.1027 113.472 57.6077C116.069 54.3057 121.421 53.9947 124.399 56.9727Z" fill="#030303"/>
<path fill-rule="evenodd" clip-rule="evenodd" d="M32.899 0.000267754C40.6316 0.0213431 46.5819 2.70887 52.1617 8.70046C53.5955 10.2403 55.0296 11.7798 56.4635 13.3196C58.5362 12.6087 60.6075 11.8987 62.6803 11.1878C78.041 5.91985 95.1988 5.64522 110.166 10.428C112.921 11.3089 115.676 12.1897 118.432 13.0706C120.016 11.4446 121.601 9.81863 123.185 8.19265C129.421 1.79092 135.101 -0.393253 144.096 0.154565C152.009 0.636545 156.728 2.65683 161.933 7.78835C167.482 13.2592 169.797 19.0964 169.738 27.4719C169.675 36.4439 166.902 42.5016 160.158 48.4016C158.494 49.8566 156.83 51.3119 155.168 52.7669C155.901 54.9716 156.635 57.1764 157.369 59.3811C165.528 83.898 163.52 104.532 151.42 120.56C150.118 122.284 148.816 124.009 147.514 125.733C148.364 126.523 149.215 127.312 150.065 128.102C153.992 131.751 160.79 141.719 164.641 149.472C168.887 158.02 171.013 164.371 173.44 175.757C174.462 180.55 175.207 187.622 175.097 191.472C174.965 196.107 174.819 197.714 173.977 198.358C173.951 198.398 173.926 198.437 173.899 198.472C173.733 198.686 173.412 198.961 173.399 198.972H4.899L3.07966 198.827C2.78426 198.859 2.4483 198.835 2.06306 198.781C1.9266 198.761 1.79804 198.74 1.6783 198.716H1.67634L1.67537 198.715C0.00188255 198.384 -0.0845029 197.414 0.0376727 189.472C0.358912 168.65 9.88252 144.433 23.0972 130.832C24.6002 129.285 26.103 127.741 27.606 126.194C25.9002 123.765 24.1937 121.334 22.4879 118.906C11.5223 103.291 9.86188 85.8532 16.9967 61.2307C17.8116 58.4199 18.626 55.609 19.441 52.7981C17.7851 51.2443 16.1291 49.6889 14.4732 48.135C7.97682 42.0353 5.10182 35.539 5.1158 26.9954C5.1299 18.7098 7.85859 12.6873 14.3482 6.61648C19.7601 1.55458 24.1853 -0.0236836 32.899 0.000267754ZM138.554 133.35C131.712 138.361 123.067 142.484 112.899 145.584C104.682 148.089 102.507 148.329 87.899 148.32C74.5535 148.312 70.5717 147.946 63.899 146.118C54.2023 143.461 45.5518 139.509 37.564 134.084C35.5712 132.73 33.5773 131.379 31.5845 130.025C30.4517 131.279 29.318 132.534 28.1851 133.787C16.2392 147.01 7.60879 167.88 5.9117 187.647C5.68144 190.33 5.48621 192.394 5.28181 193.972H41.0572C41.9642 184.681 52.5253 170.848 63.2808 165.116C88.0248 151.928 118.845 161.149 130.96 185.365C132.712 188.869 133.759 191.771 134.093 193.972H169.57C169.373 192.36 169.186 190.242 168.963 187.472C167.529 169.613 158.551 147.029 148.386 135.706C146.662 133.785 144.936 131.862 143.211 129.941C141.659 131.078 140.106 132.213 138.554 133.35ZM87.399 165.008C69.457 164.967 51.7795 177.591 47.0465 193.822C47.0317 193.872 47.0162 193.922 47.0015 193.972H127.848C127.759 193.733 127.666 193.484 127.571 193.223C121.186 175.712 106.007 165.051 87.399 165.008ZM40.9732 7.57546C35.7381 5.09189 26.9193 5.4776 21.9166 8.40945C18.1418 10.6224 13.4467 16.144 12.0885 19.9719C10.9705 23.1228 11.465 32.1921 12.9469 35.7405C14.8378 40.2652 17.68 43.4344 22.7506 46.6692C27.1575 49.4802 27.1538 49.2209 22.9849 62.7805C14.8691 89.1772 18.2389 107.12 34.2935 122.991C46.6324 135.188 62.1658 141.516 82.5894 142.664C119.728 144.752 150.658 124.86 155.658 95.6682C157.151 86.9523 155.516 73.4803 151.406 60.6516C149.752 55.4899 148.399 50.7959 148.399 50.2229C148.401 49.6489 150.538 47.7969 153.149 46.1067C155.761 44.4157 159.024 41.3645 160.399 39.3255C162.563 36.1166 162.899 34.512 162.899 27.3811C162.899 19.82 162.649 18.7902 159.857 14.8177C155.622 8.79208 150.345 6.00962 143.109 5.98855C136.072 5.96864 130.647 8.47478 126.694 13.5696C125.157 15.5504 123.205 18.0719 122.358 19.1731C120.827 21.1621 120.777 21.1577 114.42 18.4817C96.9787 11.141 78.3418 11.2026 60.482 18.6604C58.3432 19.5534 56.2039 20.4462 54.065 21.3391C53.5372 20.5824 53.0098 19.8253 52.482 19.0686C48.7091 13.6568 44.1091 9.06342 40.9732 7.57546Z" fill="black"/>
</svg>
