<svg width="190" height="209" viewBox="0 0 190 209" fill="none" xmlns="http://www.w3.org/2000/svg">
<path d="M186.572 52.9992C188.661 59.0062 189.778 63.9702 189.61 66.4992C189.522 67.8322 189.433 69.1662 189.345 70.4992C187.918 70.4082 186.491 70.3182 185.064 70.2272C183.637 70.1362 182.209 70.0472 180.782 69.9562C181.434 71.2332 182.085 72.5102 182.737 73.7872C187.395 82.9182 189.586 98.4472 187.913 110.468C185.657 126.674 184.436 128.357 178.536 123.392C177.503 122.523 176.471 121.655 175.438 120.786C174.84 123.572 174.241 126.356 173.643 129.142C171.605 138.628 165.81 151.375 160.555 157.932C159.37 159.41 158.186 160.888 157.001 162.366C157.972 164.289 158.943 166.213 159.914 168.136C164.643 177.505 167.976 190.364 168.172 199.999C168.23 202.832 168.287 205.666 168.345 208.499C143.845 208.499 119.345 208.499 94.8454 208.499C70.3454 208.499 45.8454 208.499 21.3454 208.499C21.4124 205.666 21.4784 202.832 21.5454 199.999C21.7734 190.333 25.1284 177.344 29.7764 168.136C30.7474 166.213 31.7184 164.289 32.6894 162.366C31.5644 160.945 30.4404 159.524 29.3154 158.103C22.0974 148.982 16.6444 136.501 15.2354 125.878C14.8794 123.195 14.3334 120.999 14.0214 120.999C13.7094 120.999 12.1764 122.224 10.6134 123.721C8.34939 125.89 7.42437 126.225 6.05937 125.371C3.49137 123.765 1.71037 113.954 1.63737 100.999C1.58137 91.1592 1.95237 88.3442 4.20537 81.4992C5.65337 77.0992 7.27038 72.8242 7.79838 71.9992C8.59738 70.7512 8.05235 70.4992 4.55235 70.4992C0.426351 70.4992 0.34035 70.4282 0.0393505 66.8152C-0.63565 58.7032 7.48339 40.1762 15.9284 30.5582C23.4274 22.0172 37.0984 14.5472 49.0954 12.4362C53.5304 11.6562 53.6864 11.0902 50.2814 8.13016C46.6414 4.96516 47.4884 2.72617 52.8544 1.32917C64.1154 -1.60383 80.1394 0.472164 89.1614 6.03116C91.8104 7.66316 94.2174 8.99917 94.5094 8.99917C94.8014 8.99917 98.9014 7.08717 103.62 4.74917C106.48 3.33217 109.339 1.91617 112.199 0.499167C116.39 0.505167 120.581 0.511164 124.772 0.517164C141.613 0.541164 144.802 2.33117 139.413 8.73617C138.602 9.70017 137.791 10.6632 136.98 11.6272C139.041 12.0442 141.102 12.4622 143.163 12.8792C156.787 15.6392 170.836 25.2122 179.1 37.3672C181.393 40.7392 184.755 47.7742 186.572 52.9992ZM9.24339 53.3262C7.98139 56.7212 6.92638 60.5112 6.89738 61.7492C6.85138 63.7482 7.33537 63.9992 11.2234 63.9992C17.8674 63.9992 18.3994 65.5152 14.4074 73.0742C12.5414 76.6082 10.2234 82.1992 9.25535 85.4992C7.36935 91.9292 6.7724 106.798 8.1414 113.254C8.4064 114.506 8.67236 115.756 8.93736 117.008C10.1664 116.173 11.3944 115.339 12.6234 114.504C18.9624 110.196 20.8454 111.322 20.8454 119.421C20.8454 125.7 24.3444 138.278 27.9964 145.131C31.1554 151.059 42.3664 164.137 45.9164 166.037C47.4754 166.871 48.0384 166.35 49.7384 162.507C50.9164 159.844 52.3944 157.999 53.3494 157.999C54.2384 157.999 58.2014 161.303 62.1554 165.342C69.4684 172.811 80.0914 180.563 89.6314 185.393C91.3934 186.285 93.1564 187.178 94.9184 188.07C97.3214 186.808 99.7254 185.546 102.128 184.284C112.07 179.064 123.566 170.347 129.366 163.629C132.039 160.532 135.056 157.999 136.071 157.999C137.308 157.999 138.558 159.497 139.864 162.543C142.249 168.106 142.922 167.879 151.626 158.574C162.232 147.236 167.554 135.517 168.684 121.01C169.455 111.118 170.556 110.219 176.819 114.363C178.097 115.209 179.375 116.054 180.653 116.9C180.83 116.166 181.007 115.434 181.184 114.7C184.163 102.355 182.175 86.4382 176.142 74.3292C171.702 65.4172 172.084 63.9992 178.921 63.9992C182.611 63.9992 183.929 63.6472 183.598 62.7492C183.345 62.0612 182.144 58.4892 180.93 54.8092C174.703 35.9422 157.524 20.8372 139.585 18.4572C128.929 17.0432 128.845 17.0142 128.845 14.6452C128.845 13.4002 129.506 11.5082 130.313 10.4402C133.13 6.71617 132.261 5.99917 124.934 5.99917C116.24 5.99917 107.151 8.76717 100.259 13.5142C98.5054 14.7222 96.7524 15.9292 94.9984 17.1372C93.2734 15.9512 91.5494 14.7642 89.8244 13.5782C83.0194 8.89717 73.4274 5.99917 64.7404 5.99917C57.4304 5.99917 56.5624 6.71817 59.3774 10.4402C61.3094 12.9942 61.2494 16.6302 59.2634 17.3922C58.3934 17.7262 56.0004 17.9992 53.9454 17.9992C51.8904 17.9992 47.7644 18.7252 44.7774 19.6112C28.3974 24.4712 15.3754 36.8252 9.24339 53.3262ZM27.9554 193.237C27.4734 196.131 27.0264 199.512 26.9624 200.749C26.9234 201.499 26.8844 202.249 26.8454 202.999C49.5434 202.999 72.2414 202.999 94.9394 202.999C117.637 202.999 140.335 202.999 163.033 202.999C162.812 201.249 162.59 199.499 162.369 197.749C161.433 190.344 158.418 179.502 155.408 172.718C154.553 170.791 153.697 168.863 152.842 166.936C151.028 168.305 149.215 169.675 147.401 171.045C140.723 176.087 137.868 176.074 136.564 170.999C136.07 169.074 135.534 167.365 135.374 167.201C135.214 167.037 132.442 169.432 129.214 172.522C122.582 178.872 113.914 184.892 102.7 190.938C100.152 192.312 97.6034 193.686 95.0554 195.06C92.4934 193.711 89.9324 192.361 87.3704 191.012C76.5354 185.306 68.3434 179.582 61.0914 172.651C57.6514 169.364 54.6544 166.859 54.4314 167.086C54.2084 167.313 53.6204 169.074 53.1264 170.999C51.8624 175.92 49.2864 175.931 42.7804 171.042C40.9824 169.691 39.1844 168.34 37.3864 166.989C36.6524 168.433 35.9194 169.876 35.1854 171.32C32.2104 177.175 29.0214 186.841 27.9554 193.237Z" fill="#030303"/>
<path d="M161.698 46.5631C162.614 50.5791 162.411 53.0441 160.7 58.6831C159.779 61.7171 153.628 68.2391 150.795 69.1831C149.708 69.5451 149.795 71.0511 151.269 77.3111C152.595 82.9431 152.964 87.5991 152.654 94.7471C152.142 106.529 149.34 113.136 141.299 121.504C138.464 124.454 134.915 129.381 133.412 132.454C130.798 137.797 125.207 142.999 122.078 142.999C121.361 142.999 119.86 145.136 118.743 147.749C114.819 156.923 108.528 161.045 97.3455 161.768C84.5365 162.596 76.0235 158.296 71.4865 148.705C69.6945 144.917 68.0356 142.906 66.0116 142.068C62.1286 140.46 57.2965 135.337 55.4215 130.842C54.5825 128.83 51.6625 124.891 48.9315 122.087C46.2005 119.283 42.4765 113.966 40.6555 110.271C37.7275 104.328 37.3106 102.453 37.0426 94.0261C36.8236 87.1281 37.2575 82.4971 38.6165 77.2441C39.2425 74.8261 39.8676 72.4071 40.4936 69.9891C39.4316 69.3631 38.3706 68.7361 37.3086 68.1101C31.5706 64.7251 28.4746 59.5311 28.0296 52.5471C27.3716 42.2131 32.7565 34.6711 42.6795 32.0301C49.3775 30.2481 55.7545 32.1821 61.2315 37.6561C63.8755 40.2991 64.6475 40.5041 72.2105 40.5661C78.7985 40.6201 81.5815 41.1631 86.8455 43.4241C90.4205 44.9591 94.0205 46.2151 94.8455 46.2151C95.6705 46.2151 99.2705 44.9521 102.846 43.4081C108.349 41.0321 110.618 40.6171 117.634 40.7071C125.395 40.8061 126.025 40.6561 127.537 38.3481C129.986 34.6101 136.557 31.6291 142.346 31.6291C151.53 31.6291 159.736 37.9611 161.698 46.5631ZM37.7276 41.8811C34.2296 45.3791 33.8455 46.2701 33.8455 50.8781C33.8455 55.3501 34.2996 56.4961 37.4616 59.9961C39.4506 62.1981 41.3636 63.9981 41.7116 63.9961C42.0606 63.9941 43.6955 61.4641 45.3455 58.3751C46.9955 55.2861 50.7135 50.6371 53.6085 48.0451C58.5395 43.6291 58.7605 43.2351 57.1085 41.7941C53.9155 39.0081 51.0395 37.9991 46.2935 37.9991C42.1865 37.9991 41.1326 38.4761 37.7276 41.8811ZM43.5255 81.4991C42.4285 86.4021 42.9385 99.9091 44.3775 104.071C45.9595 108.645 52.2225 117.999 53.7035 117.999C54.1645 117.999 55.3686 116.166 56.3786 113.926C58.4026 109.437 61.3235 106.861 63.4605 107.681C65.5155 108.469 65.1425 111.679 62.5955 115.123C59.5485 119.244 59.4585 127.643 62.4165 131.676C69.1915 140.912 84.9605 139.414 90.3325 129.025C90.8275 128.068 91.3216 127.111 91.8166 126.154C89.6546 124.611 87.4925 123.068 85.3305 121.525C75.1255 114.243 74.3655 111.512 78.0055 95.1871C80.2815 84.9801 81.6765 82.3371 84.2675 83.3311C86.2455 84.0901 86.2705 87.8261 84.3455 94.9991C81.7915 104.513 81.1915 103.999 94.8455 103.999C108.5 103.999 107.9 104.513 105.346 94.9991C103.425 87.8411 103.446 84.0901 105.413 83.3351C107.935 82.3671 108.944 84.2551 111.463 94.6681C115.424 111.037 114.513 114.541 104.499 121.438C101.251 123.675 98.8455 126.078 98.8455 127.088C98.8455 128.054 100.062 130.291 101.549 132.058C108.958 140.863 123.186 139.748 128.094 129.979C130.747 124.699 130.329 120.071 126.704 114.598C123.888 110.346 123.72 109.696 125.087 108.329C127.282 106.134 129.984 107.897 132.926 113.444C134.255 115.949 135.64 117.999 136.005 117.999C136.37 117.999 137.779 116.68 139.135 115.068C147.136 105.559 148.999 91.8481 144.448 75.9811C141.244 64.8101 138.696 59.6161 133.99 54.6641C125.151 45.3621 115.182 43.9541 102.754 50.2531C98.6796 52.3181 94.9985 54.0051 94.5745 54.0031C94.1505 54.0011 92.1255 52.8941 90.0745 51.5431C84.9995 48.2001 75.3545 45.7781 70.3455 46.5901C57.4725 48.6761 48.1585 60.8011 43.5255 81.4991ZM79.5955 143.536C77.5335 143.913 75.8455 144.587 75.8455 145.034C75.8455 145.481 77.0645 147.295 78.5545 149.065C85.7485 157.615 101.318 158.465 109.508 150.754C114.259 146.281 114.387 144.319 109.979 143.514C105.451 142.687 98.4406 138.686 96.3916 135.761C95.8766 135.025 95.3605 134.29 94.8455 133.554C94.3305 134.29 93.8145 135.025 93.2995 135.761C91.2305 138.715 84.2255 142.689 79.5955 143.536ZM94.8455 109.999C88.2175 109.999 82.8455 110.41 82.8455 110.918C82.8455 111.423 85.4055 113.868 88.5355 116.351C93.3865 120.199 94.5295 120.705 96.2855 119.777C99.4395 118.11 106.846 111.87 106.846 110.879C106.846 110.395 101.446 109.999 94.8455 109.999ZM132.535 41.8371C130.816 43.3391 130.938 43.5961 134.948 46.9271C138.587 49.9501 145.961 59.8421 147.082 63.2061C147.635 64.8641 152.693 61.1951 154.397 57.9001C155.194 56.3591 155.846 52.9981 155.846 50.4311C155.846 46.3431 155.365 45.2821 151.964 41.8811C148.559 38.4761 147.505 37.9991 143.398 37.9991C138.63 37.9991 135.775 39.0071 132.535 41.8371Z" fill="#030303"/>
<path d="M126.831 76.985C130.683 80.837 126.596 87.399 120.345 87.399C113.426 87.399 110.761 81.25 116.149 77.72C120.395 74.938 124.501 74.655 126.831 76.985Z" fill="#030303"/>
<path d="M74.3315 78.5731C77.2915 81.3161 77.4974 83.1171 75.0954 85.2261C70.9364 88.8781 65.3064 88.1591 62.3144 83.5931C57.6584 76.4881 67.6005 72.3351 74.3315 78.5731Z" fill="#030303"/>
</svg>
