<svg width="172" height="195" viewBox="0 0 172 195" fill="none" xmlns="http://www.w3.org/2000/svg">
<path d="M170.632 20.9522C173.734 30.2982 169.921 43.7752 162.274 50.4892C161.173 51.4552 160.073 52.4222 158.972 53.3882C159.653 55.1172 160.335 56.8452 161.016 58.5742C169.954 81.2512 166.379 107.768 152.267 123.464C150.824 125.069 149.381 126.674 147.938 128.279C149.75 130.987 151.563 133.695 153.375 136.402C163.157 151.016 169.067 169.009 169.323 184.952C169.371 187.952 169.42 190.952 169.468 193.952C141.574 194.037 113.681 194.123 85.7871 194.208C4.73409 194.456 2.08709 194.404 1.51109 192.589C0.70909 190.062 2.48707 175 4.56407 166.717C7.49107 155.046 14.2582 140.941 21.0552 132.347C22.0052 131.145 22.9561 129.944 23.9061 128.742C23.0551 127.944 22.2051 127.145 21.3541 126.347C16.7951 122.068 10.9781 112.124 8.5471 104.452C3.9171 89.8412 4.22114 77.4342 9.60814 61.1062C10.4711 58.4912 11.3331 55.8752 12.1961 53.2602C10.8421 51.8752 9.48911 50.4912 8.13511 49.1062C2.32311 43.1612 0.0151032 37.4412 0.000103214 28.9522C-0.00889679 23.6712 0.569107 20.7052 2.35411 16.8712C10.9821 -1.65878 33.9741 -5.72478 48.6861 8.67722C50.0921 10.0532 51.4991 11.4302 52.9051 12.8062C55.8321 11.8852 58.7591 10.9652 61.6861 10.0442C77.4821 5.07621 97.8681 5.43921 112.537 10.9472C114.56 11.7072 116.582 12.4662 118.605 13.2262C120.009 11.7412 121.413 10.2552 122.816 8.7702C128.483 2.7732 134.719 0.0842159 142.968 0.0842159C156.242 0.0842159 166.199 7.59421 170.632 20.9522ZM7.30308 20.6912C5.24608 26.3622 5.70809 33.5392 8.49009 39.1212C10.8171 43.7912 14.5631 48.3332 15.2871 47.3632C15.4551 47.1372 17.6601 44.0062 20.1861 40.4052C25.5511 32.7582 35.9741 22.7042 42.5071 18.8762C44.0351 17.9802 45.5632 17.0862 47.0912 16.1902C46.1542 15.2032 45.2171 14.2162 44.2801 13.2292C33.0591 1.4142 12.8121 5.50021 7.30308 20.6912ZM9.60606 172.076C8.79506 175.858 8.09515 181.09 8.05015 183.702C8.02315 185.285 7.99512 186.869 7.96812 188.452C12.7731 188.452 17.5782 188.452 22.3832 188.452C27.1882 188.452 31.9931 188.452 36.7981 188.452C38.0231 186.783 39.2481 185.114 40.4731 183.445C47.0621 174.469 58.4231 167.131 70.6711 163.941C79.2651 161.702 94.2801 161.996 102.613 164.566C113.932 168.056 118.948 171.158 127.685 180.07C130.424 182.864 133.162 185.658 135.901 188.452C140.595 188.452 145.29 188.452 149.984 188.452C154.678 188.452 159.373 188.452 164.067 188.452C163.84 186.369 163.613 184.285 163.386 182.202C161.556 165.417 154.373 146.921 145.33 135.708C143.27 133.153 142.938 133.057 140.788 134.396C130.602 140.738 126.76 142.69 120.085 144.913C91.0091 154.596 58.4011 151.496 34.5631 136.783C32.5801 135.559 30.5981 134.336 28.6151 133.112C27.6521 134.252 26.6902 135.392 25.7272 136.532C19.0852 144.396 12.3641 159.214 9.60606 172.076ZM11.9381 77.4522C8.47809 103.609 23.1012 126.956 49.7162 137.771C62.3562 142.907 68.3151 143.91 85.9681 143.865C105.081 143.817 112.996 142.18 126.468 135.492C141.566 127.996 152.075 116.852 157.15 102.952C160.383 94.0972 160.372 76.8462 157.126 66.4522C149.144 40.8902 129.833 21.7722 104.968 14.8182C100.104 13.4582 95.0701 13.0102 84.9681 13.0422C73.0951 13.0792 70.5041 13.4052 63.4681 15.7432C51.5781 19.6942 43.5831 24.8032 33.4381 34.9342C20.9531 47.4022 14.1271 60.9012 11.9381 77.4522ZM50.5201 181.579C47.4671 184.37 44.9681 187.062 44.9681 187.563C44.9681 188.1 61.8881 188.367 86.2181 188.213C99.9681 188.126 113.718 188.039 127.468 187.952C125.731 186.213 123.993 184.475 122.256 182.736C103.624 164.087 70.2481 163.549 50.5201 181.579ZM128.218 11.8892C126.431 13.3962 124.968 15.0152 124.968 15.4872C124.968 15.9592 127.547 18.0562 130.698 20.1482C138.298 25.1922 146.621 33.4992 151.88 41.2872C153.306 43.3992 154.732 45.5102 156.158 47.6222C156.992 46.8442 157.826 46.0652 158.66 45.2872C173.142 31.7732 163.248 6.45221 143.486 6.45221C137.113 6.45221 132.878 7.96021 128.218 11.8892Z" fill="#030303"/>
<path d="M144.033 73.4519C145.48 78.1909 144.994 87.7979 143.097 91.9739C139.188 100.579 131.765 105.14 123.235 104.179C116.943 103.47 114.004 100.915 109.968 92.6479C108.043 88.7049 104.383 83.3349 101.834 80.7149C99.2852 78.0949 96.6982 74.9689 96.0842 73.7679C94.5642 70.7919 94.6802 64.0779 96.3192 60.1539C98.1602 55.7479 104.075 50.7689 109.067 49.4249C122.036 45.9329 139.241 57.7549 144.033 73.4519ZM102.652 61.3249C100.743 64.3999 100.51 68.6849 102.083 71.7679C102.696 72.9689 105.375 76.2019 108.036 78.9519C110.697 81.7019 113.997 86.4969 115.367 89.6069C116.737 92.7169 118.884 95.9799 120.136 96.8569C125.262 100.448 133.45 97.3669 137.116 90.4679C139.563 85.8619 139.516 77.2569 137.013 71.7429C134.688 66.6219 127.773 59.5279 122.817 57.1809C115.377 53.6569 106.246 55.5339 102.652 61.3249Z" fill="#030303"/>
<path d="M74.1163 58.436C76.3483 62.637 76.5754 71.395 74.5504 75.252C73.7704 76.737 71.2394 79.752 68.9254 81.952C66.4094 84.344 63.3814 88.845 61.3944 93.146C57.5994 101.359 54.9544 103.555 48.0614 104.217C35.1294 105.46 24.2663 92.289 26.4133 77.97C29.0033 60.697 47.6213 45.588 61.6583 49.368C67.1903 50.858 71.9183 54.299 74.1163 58.436ZM33.4844 74.312C31.7274 79.82 32.2514 86.54 34.7754 90.862C38.3634 97.006 46.0324 100.094 51.0424 97.413C52.1104 96.841 54.3384 93.386 55.9944 89.734C57.8134 85.721 61.1733 80.82 64.4863 77.347C69.5193 72.071 69.9684 71.219 69.9684 66.949C69.9684 63.177 69.4334 61.763 67.1394 59.469C62.0864 54.416 54.9744 53.8 47.3484 57.752C42.5674 60.23 35.1514 69.088 33.4844 74.312Z" fill="#030303"/>
<path d="M111.301 114.119C113.656 116.474 109.58 122.88 104.332 125.073C99.2263 127.207 93.7633 126.802 89.6083 123.982C88.3953 123.159 87.1813 122.335 85.9683 121.512C84.7553 122.335 83.5413 123.159 82.3283 123.982C78.1393 126.824 71.4832 127.292 67.1682 125.047C63.3202 123.045 60.0663 119.278 59.7443 116.456C59.2943 112.508 62.6463 112.71 66.4483 116.86C69.1543 119.815 70.4233 120.446 73.6033 120.42C77.8153 120.385 80.0083 119.142 81.8053 115.768C83.7893 112.043 83.1592 110.512 78.9492 108.828C73.6842 106.721 70.9683 103.169 70.9683 98.3902C70.9683 92.2332 74.1553 90.4521 85.1693 90.4521C94.0593 90.4521 97.3663 91.3431 99.6863 94.3651C102.955 98.6231 99.0933 106.193 92.4193 108.606C89.5863 109.63 88.9683 110.363 88.9683 112.698C88.9683 116.977 92.9613 120.452 97.8803 120.452C101.256 120.452 102.32 119.904 104.675 116.952C107.302 113.66 109.782 112.6 111.301 114.119ZM76.6653 97.1411C75.2823 97.9921 76.4973 99.8671 79.9433 102.202C84.0503 104.985 87.4783 105.048 91.7863 102.421C96.1883 99.7371 95.6703 97.2971 90.4633 96.1891C86.7853 95.4061 78.5603 95.9741 76.6653 97.1411Z" fill="#030303"/>
<path d="M123.983 67.7669C126.166 73.0549 122.581 78.4519 116.886 78.4519C109.898 78.4519 106.555 70.7749 111.423 65.9069C115.3 62.0299 122.026 63.0259 123.983 67.7669Z" fill="#030303"/>
<path d="M59.5133 65.9073C64.5083 70.9023 61.4723 78.4523 54.4683 78.4523C50.0123 78.4523 46.9683 75.5353 46.9683 71.2663C46.9683 64.3063 54.6363 61.0303 59.5133 65.9073Z" fill="#030303"/>
</svg>
