<svg width="221" height="194" viewBox="0 0 221 194" fill="none" xmlns="http://www.w3.org/2000/svg">
<path d="M217.554 23.9238C219.232 27.2818 220.605 30.6008 220.605 31.2988C220.605 32.6588 218.293 35.3148 216.624 35.8718C216.008 36.0768 216.396 38.2868 217.606 41.4718C219.907 47.5288 220.285 58.8008 218.317 62.7108C217.446 64.4408 216.086 65.3058 213.899 65.5188C211.249 65.7778 210.629 66.3428 210.064 69.0188C208.935 74.3648 204.361 81.8048 200.652 84.3248C196.578 87.0938 194.893 87.2818 192.619 85.2238C191.159 83.9018 190.543 83.9578 187.079 85.7238C184.936 86.8168 182.603 87.7108 181.894 87.7108C181.1 87.7108 180.605 88.9919 180.605 91.0509C180.605 96.2829 176.928 109.347 173.877 114.955C172.352 117.757 169.243 122.12 166.967 124.652C165.588 126.186 164.208 127.722 162.829 129.256C164.436 131.697 166.043 134.136 167.65 136.577C176.148 149.483 181.782 166.408 183.186 183.239C183.725 189.705 183.567 191.498 182.369 192.492C181.216 193.449 164.812 193.667 108.995 193.468C85.0317 193.382 61.0677 193.297 37.1047 193.211C37.1507 190.044 37.1967 186.878 37.2427 183.711C37.4757 167.673 43.4587 149.652 53.4177 134.986C54.7727 132.99 56.1287 130.995 57.4837 128.999C56.1827 127.728 54.8807 126.458 53.5797 125.187C46.3127 118.091 39.6047 102.162 39.6047 92.0008C39.6047 89.1668 39.1667 87.7108 38.3157 87.7108C37.6067 87.7108 35.2737 86.8168 33.1307 85.7238C29.6667 83.9578 29.0507 83.9018 27.5907 85.2238C25.3167 87.2818 23.0297 87.0848 19.5807 84.5348C15.6387 81.6208 11.8787 75.7638 10.4007 70.2368C9.33471 66.2498 8.86072 65.7108 6.42072 65.7108C2.23172 65.7108 0.315718 62.0108 0.312718 53.9158C0.310718 48.0678 1.17272 44.2878 4.04272 37.5508C4.54072 36.3818 4.13771 35.6978 2.67971 35.2348C-5.68729 32.5788 6.90472 12.7018 21.6167 5.34184C34.5217 -1.11416 47.4997 -1.49717 59.2287 4.23183C64.3897 6.75283 71.8887 13.1618 74.8917 17.6178C75.4327 18.4198 75.9717 19.2228 76.5127 20.0248C78.4507 19.1548 80.3907 18.2848 82.3287 17.4148C91.5337 13.2838 99.1447 11.7108 109.921 11.7108C120.556 11.7108 128.315 13.2808 137.287 17.2488C139.127 18.0628 140.968 18.8768 142.808 19.6908C144.89 17.5358 146.973 15.3798 149.055 13.2248C155.817 6.22584 162.447 2.51084 171.558 0.617844C187.926 -2.78416 209.728 8.26284 217.554 23.9238ZM8.52072 25.0838C7.88572 26.1258 7.25172 27.1688 6.61672 28.2108C7.56072 28.4078 8.50372 28.6038 9.44772 28.8008C15.4787 30.0588 15.7787 31.1238 11.7637 37.0308C7.96771 42.6148 6.60472 46.9288 6.60472 53.3598C6.60472 58.3208 7.62772 60.1008 9.10472 57.7108C10.0827 56.1288 14.3287 56.5478 14.9977 58.2928C15.3317 59.1628 15.6047 61.6518 15.6047 63.8248C15.6047 68.4678 17.8287 74.2558 20.8477 77.4688C21.5637 78.2308 22.2787 78.9928 22.9947 79.7548C23.7337 78.8308 24.4717 77.9068 25.2107 76.9828C25.9497 76.0588 26.6887 75.1348 27.4277 74.2108C28.2077 74.9218 28.9857 75.6328 29.7657 76.3438C32.8207 79.1298 38.6107 82.0378 39.4477 81.2048C39.8087 80.8448 40.5887 77.8958 41.1807 74.6508C41.5397 72.6838 41.8977 70.7178 42.2567 68.7508C41.2227 68.4098 40.1877 68.0678 39.1537 67.7268C26.1757 63.4438 19.9137 46.3418 26.9427 34.3828C34.5817 21.3868 51.4737 19.3358 61.4787 30.1898C63.7477 32.6518 65.6047 35.1168 65.6047 35.6678C65.6047 36.2188 63.8057 39.0418 61.6067 41.9408C53.1037 53.1508 47.2457 69.0228 45.9347 84.4018C44.5127 101.075 51.4607 117.09 64.3977 126.955C91.6937 147.771 136.698 145.674 160.304 122.487C170.204 112.763 175.408 98.3408 174.165 84.0788C172.939 70.0178 166.423 52.4508 158.583 42.0658C156.395 39.1678 154.605 36.1638 154.605 35.3908C154.605 33.2498 164.055 24.8748 167.269 24.1678C168.829 23.8248 170.745 23.3408 171.528 23.0928C174.891 22.0258 183.431 24.8688 187.613 28.4488C193.114 33.1578 195.555 38.5779 195.583 46.1449C195.62 56.1359 189.642 64.8929 180.793 67.8139C178.018 68.7299 177.534 69.3008 178.03 71.0678C178.361 72.2468 178.912 75.1228 179.254 77.4608C179.596 79.7988 180.288 81.7108 180.791 81.7108C182.447 81.7108 187.075 78.9528 189.012 76.8128C191.518 74.0438 193.198 74.1598 195.218 77.2428C196.763 79.6008 197 79.6628 198.67 78.1518C201.598 75.5018 203.908 69.6088 204.526 63.2108C205.042 57.8628 205.362 57.1738 207.47 56.8758C208.771 56.6918 210.323 57.0288 210.92 57.6258C212.936 59.6418 213.605 58.7278 213.599 53.9608C213.592 47.5798 212.236 43.0968 208.559 37.2998C205.054 31.7728 205.283 29.9258 209.581 29.0658C213.078 28.3668 213.043 28.4588 211.192 24.8798C209.104 20.8428 200.575 13.2358 194.925 10.3728C177.476 1.53082 160.252 6.82482 147.105 25.0718C146.438 25.9968 145.772 26.9228 145.105 27.8478C142.272 26.5348 139.438 25.2218 136.605 23.9088C125.706 18.8578 120.76 17.7108 109.872 17.7108C99.8007 17.7108 92.0037 19.4628 83.0347 23.7438C79.6157 25.3758 76.1167 26.7108 75.2597 26.7108C74.4027 26.7108 72.3557 24.7558 70.7117 22.3658C59.7297 6.40383 41.4367 1.85383 24.4817 10.8658C18.3017 14.1508 11.4777 20.2288 8.52072 25.0838ZM31.0537 40.3948C29.3697 45.1178 29.3767 44.9298 30.6737 50.0178C31.9397 54.9868 34.0737 57.8079 38.7017 60.6289C42.6247 63.0209 44.6047 63.2748 44.6047 61.3878C44.6047 59.1788 53.1237 42.4228 55.9537 39.0668C57.4117 37.3378 58.6047 35.6658 58.6047 35.3528C58.6047 35.0398 56.9257 33.6418 54.8727 32.2468C52.1537 30.3998 49.8317 29.7108 46.3227 29.7108C38.5767 29.7108 33.6297 33.1728 31.0537 40.3948ZM44.0837 174.053C43.3697 177.99 42.7447 182.674 42.6947 184.461C42.6647 185.544 42.6347 186.628 42.6047 187.711C46.9017 187.711 51.1997 187.711 55.4967 187.711C68.2147 187.711 68.3957 187.679 68.9807 185.348C70.2007 180.487 77.9847 170.426 83.8907 166.079C96.4067 156.866 114.095 155.008 127.881 161.459C136.562 165.521 144.555 173.103 148.788 181.289C149.894 183.427 150.999 185.566 152.105 187.704C156.379 187.705 160.653 187.706 164.927 187.707C169.201 187.708 173.475 187.71 177.749 187.711C177.528 185.794 177.306 183.878 177.085 181.961C175.366 167.083 170.612 153.203 163.116 141.176C160.523 137.016 158.109 133.747 157.753 133.912C157.396 134.077 153.28 136.126 148.605 138.467C136.025 144.765 126.731 146.891 111.105 147.045C94.4487 147.209 84.7527 145.114 71.6727 138.521C68.4837 136.914 65.2937 135.305 62.1047 133.698C61.3517 134.617 60.5977 135.536 59.8447 136.455C56.7447 140.236 49.2327 155.053 47.1197 161.553C46.1647 164.491 44.7977 170.116 44.0837 174.053ZM78.7137 180.36C77.0037 182.942 75.6047 185.651 75.6047 186.382C75.6047 187.461 82.0837 187.711 110.105 187.711C129.08 187.711 144.605 187.468 144.605 187.171C144.605 186.874 143.67 184.798 142.527 182.558C139.637 176.894 132.597 170.344 125.822 167.018C120.715 164.511 119.038 164.211 110.105 164.211C101.822 164.211 99.2607 164.6 95.1847 166.48C88.5847 169.524 82.4887 174.661 78.7137 180.36ZM164.221 32.7988C162.782 33.9308 161.605 35.0538 161.605 35.2948C161.605 35.5358 163.352 38.3158 165.487 41.4718C169.945 48.0608 172.812 53.5958 174.547 58.9608C175.956 63.3168 177.069 63.5468 181.683 60.4368C189.189 55.3788 191.796 46.1298 187.982 38.0918C183.814 29.3078 172.003 26.6778 164.221 32.7988Z" fill="#030303"/>
<path d="M128.506 88.8319C129.586 95.1349 128.93 103.119 127.024 106.842C123.639 113.455 115.981 116.577 105.928 115.444C100.795 114.865 97.1308 112.535 93.9048 107.796C87.5198 98.417 91.9428 76.413 101.503 69.993C105.092 67.583 111.494 66.955 115.79 68.593C121.718 70.853 126.815 78.9649 128.506 88.8319ZM97.6488 88.037C95.5798 98.501 97.2698 105.294 102.605 107.959C109.618 111.462 119.308 109.257 121.64 103.626C122.405 101.779 122.688 97.796 122.398 92.946C121.675 80.845 117.083 73.711 110.017 73.711C104.266 73.711 99.3568 79.397 97.6488 88.037Z" fill="#030303"/>
<path d="M128.049 118.051C130.462 118.977 129.898 121.287 126.574 124.084C122.753 127.3 117.756 128.7 110.105 128.7C102.454 128.7 97.4568 127.3 93.6358 124.084C87.5158 118.935 91.0878 116.024 98.5458 120.083C102.403 122.182 104.731 122.711 110.105 122.711C115.479 122.711 117.807 122.182 121.664 120.083C124.32 118.637 127.193 117.723 128.049 118.051Z" fill="#030303"/>
<path d="M81.2906 73.8848C84.3586 76.7668 84.2996 81.1057 81.1496 84.2557C78.1496 87.2557 74.7346 87.3868 71.2396 84.6378C67.7246 81.8728 67.4977 75.5998 70.8277 73.2678C73.9817 71.0588 78.5706 71.3288 81.2906 73.8848Z" fill="#030303"/>
<path d="M149.291 73.8851C152.359 76.7671 152.3 81.1061 149.15 84.2561C146.15 87.2561 142.735 87.3871 139.24 84.6381C135.938 82.0411 135.627 76.6891 138.605 73.7111C141.281 71.0351 146.345 71.1181 149.291 73.8851Z" fill="#030303"/>
</svg>
