<svg width="176" height="201" viewBox="0 0 176 201" fill="none" xmlns="http://www.w3.org/2000/svg">
<path d="M170.933 102.796C173.684 105.506 175.808 108.402 175.654 109.233C175.499 110.064 173.349 111.436 170.876 112.283C168.403 113.129 165.707 114.066 164.886 114.364C163.816 114.752 164.458 115.592 167.152 117.325C173.839 121.628 172.507 122.892 153.88 129.919C144.805 133.343 136.93 136.323 136.38 136.542C135.83 136.761 136.872 139.037 138.696 141.598C148.001 154.667 155.054 175.799 155.264 191.244C155.303 194.077 155.341 196.911 155.38 199.744C133.084 199.83 110.787 199.915 88.4914 200.001C37.8284 200.196 21.2534 199.969 20.1644 199.065C18.6514 197.809 18.8704 192.706 20.9924 179.744C23.0084 167.429 29.3444 152.028 36.5634 141.896C38.4634 139.23 39.8744 136.935 39.6994 136.798C39.5244 136.661 32.4054 133.954 23.8804 130.783C15.3554 127.612 7.59238 124.603 6.63038 124.096C3.94238 122.68 4.54138 119.557 7.88038 117.585C9.53038 116.61 10.8804 115.491 10.8804 115.099C10.8804 114.707 8.40538 113.666 5.38038 112.787C-1.62862 110.749 -1.73464 109.035 4.74036 102.388C10.5304 96.443 13.7264 91.201 17.7774 81.003C18.7804 78.477 19.7844 75.952 20.7874 73.426C19.9584 71.707 19.1284 69.987 18.2994 68.268C11.1484 53.445 9.28137 27.872 14.0254 9.74399C16.2024 1.42699 16.5834 0.720998 19.0574 0.434998C22.7084 0.0129976 35.4184 5.45397 44.1704 11.186C48.1354 13.783 54.4954 19.067 58.3014 22.927C60.6084 25.267 62.9144 27.606 65.2214 29.946C66.7474 29.438 68.2754 28.93 69.8014 28.422C76.5174 26.187 99.8394 26.286 105.795 28.575C107.267 29.141 108.739 29.706 110.211 30.272C111.827 28.459 113.443 26.646 115.059 24.833C117.725 21.841 122.713 17.271 126.143 14.677C133.752 8.922 149.187 1.27999 154.692 0.541992C156.04 0.360992 157.389 0.181 158.737 0C159.118 1.415 159.499 2.831 159.88 4.246C165.897 26.591 165.135 49.087 157.758 66.861C156.773 69.233 155.789 71.606 154.804 73.978C155.51 75.772 156.217 77.567 156.923 79.361C160.891 89.445 165.923 97.861 170.933 102.796ZM12.4284 103.199C11.0054 104.536 9.98439 106.056 10.1584 106.578C10.3324 107.1 12.9254 108.266 15.9204 109.169C22.8614 111.261 23.4814 113.4 18.3884 117.676C17.1544 118.712 15.9224 119.746 14.6884 120.782C19.4704 122.562 24.2524 124.343 29.0344 126.123C36.9244 129.06 49.0054 133.92 55.8804 136.924C72.1524 144.033 71.8804 143.959 71.8804 141.304C71.8804 140.109 73.2224 137.905 74.8634 136.406C75.8574 135.498 76.8534 134.589 77.8474 133.681C77.3704 130.506 76.8944 127.33 76.4174 124.155C73.9524 107.734 67.3814 93.315 59.3394 86.68C52.0964 80.704 45.4334 78.265 36.3214 78.254C31.4014 78.248 27.6234 78.731 26.6214 79.494C25.7184 80.182 22.7384 85.249 19.9984 90.756C17.2584 96.263 13.8514 101.862 12.4284 103.199ZM17.8604 21.708C16.1234 34.017 18.1764 51.997 22.4624 61.999C23.9234 65.408 24.1704 65.577 25.2234 63.884C29.9114 56.343 32.8094 52.389 37.0394 47.76C38.6604 45.987 40.2804 44.214 41.9014 42.441C40.5504 39.806 39.1984 37.17 37.8474 34.535C35.6184 30.187 30.7964 22.635 27.1334 17.754C24.9134 14.796 22.6924 11.837 20.4724 8.879C20.1794 10.011 19.8854 11.143 19.5924 12.275C19.1084 14.143 18.3294 18.388 17.8604 21.708ZM27.5134 177.89C26.7044 181.66 26.0074 186.882 25.9624 189.494C25.9354 191.077 25.9074 192.661 25.8804 194.244C30.6904 194.244 35.4994 194.244 40.3094 194.244C45.1194 194.244 49.9284 194.244 54.7384 194.244C55.2534 192.473 55.7684 190.701 56.2834 188.93C58.1684 182.446 62.5284 176.236 67.9564 172.304C80.8934 162.933 100.135 164.541 111.071 175.908C114.814 179.798 119.852 189.295 119.87 192.494C119.879 194.083 121.268 194.244 134.952 194.244C139.976 194.244 145 194.244 150.024 194.244C149.803 192.327 149.581 190.411 149.36 188.494C148.347 179.725 146.188 170.938 143.082 162.939C139.976 154.94 131.732 141.508 129.373 140.603C127.485 139.879 114.603 145.021 100.945 151.95C95.2064 154.862 89.1784 157.244 87.5504 157.244C85.9224 157.244 79.8184 154.815 73.9854 151.846C68.1524 148.877 59.4634 144.871 54.6754 142.943C51.7734 141.774 48.8724 140.606 45.9704 139.437C45.1414 140.523 44.3134 141.61 43.4844 142.696C36.4624 151.903 30.0624 166.005 27.5134 177.89ZM31.6164 65.319C30.3614 67.461 29.1074 69.602 27.8524 71.744C30.6074 71.799 33.3614 71.853 36.1164 71.908C49.0734 72.164 57.9874 76.204 66.7494 85.791C75.2024 95.04 81.0764 110.056 83.3664 128.268C83.5564 129.776 83.7454 131.284 83.9354 132.792C85.2164 132.67 86.4984 132.547 87.7794 132.425C89.0604 132.303 90.3424 132.18 91.6234 132.058C91.8354 129.991 92.0464 127.924 92.2584 125.857C92.6074 122.446 93.8014 116.378 94.9114 112.373C102.243 85.916 117.519 71.984 139.13 72.046C143.393 72.058 146.88 71.833 146.88 71.546C146.88 69.16 139.188 57.635 133.606 51.658C127.953 45.605 126.85 43.889 127.409 42.019C128.696 37.711 137.517 21.649 141.726 15.952C144.045 12.813 145.618 10.244 145.22 10.244C142.376 10.244 128.936 20.007 121.163 27.72C118.091 30.769 115.017 33.818 111.945 36.867C109.017 36.114 106.091 35.36 103.163 34.607C92.1824 31.782 83.4234 31.675 73.3804 34.244C69.0794 35.344 64.8324 36.244 63.9424 36.244C63.0524 36.244 59.9964 33.598 57.1494 30.364C49.7644 21.974 32.9584 9.83199 31.1844 11.606C30.9084 11.882 32.6754 14.951 35.1114 18.426C40.8524 26.616 44.3084 32.72 46.8304 39.118C47.5084 40.839 48.1874 42.559 48.8654 44.28C46.6184 46.716 44.3694 49.151 42.1224 51.587C38.4144 55.606 33.6864 61.785 31.6164 65.319ZM63.9864 186.244C62.8324 188.169 61.8864 190.757 61.8844 191.994C61.8834 192.744 61.8814 193.494 61.8804 194.244C70.5534 194.244 79.2264 194.244 87.8994 194.244C96.5724 194.244 105.245 194.244 113.918 194.244C113.698 193.327 113.479 192.411 113.259 191.494C112.119 186.739 110.208 183.825 105.099 179.046C99.5984 173.901 95.1754 172.253 86.8804 172.259C77.5114 172.266 69.3934 177.226 63.9864 186.244ZM79.8144 140.279C76.9534 141.81 77.4464 144.099 81.4514 147.876C86.4404 152.581 89.6174 152.385 94.4144 147.075C95.6704 145.685 96.9244 144.296 98.1804 142.906C97.4264 142.296 96.6734 141.685 95.9194 141.075C93.3594 139.002 83.1434 138.497 79.8144 140.279ZM98.5734 123.244C97.3624 130.451 97.8724 133.471 100.88 136.897C102.53 138.776 103.88 140.973 103.88 141.779C103.88 143.615 104.277 143.608 107.956 141.705C111.451 139.898 150.658 124.123 156.13 122.323C158.192 121.644 159.88 120.718 159.88 120.265C159.88 119.812 158.274 118.494 156.311 117.336C153.638 115.759 152.822 114.668 153.061 112.989C153.368 110.83 154.359 110.386 165.676 107.324C165.839 107.28 164.334 105.106 162.332 102.494C160.33 99.882 156.717 93.636 154.302 88.615C149.379 78.381 149.227 78.279 138.668 78.258C118.398 78.217 103.293 95.163 98.5734 123.244ZM137.528 34.645C135.521 38.44 133.88 41.749 133.88 41.998C133.88 42.247 135.979 44.766 138.544 47.597C141.109 50.428 145.033 55.633 147.263 59.165C148.615 61.305 149.966 63.446 151.318 65.586C151.934 64.175 152.548 62.763 153.164 61.352C157.544 51.308 159.198 32.021 156.824 18.678C155.03 8.59498 155.11 8.68299 151.689 12.956C146.74 19.137 141.416 27.291 137.528 34.645Z" fill="#030303"/>
<path d="M128.323 98.4672C130.794 101.994 130.314 106.757 127.245 109.171C123.75 111.92 120.335 111.789 117.335 108.789C114.305 105.759 114.1 101.024 116.88 98.2442C119.749 95.3752 126.246 95.5022 128.323 98.4672Z" fill="#030303"/>
<path d="M58.3233 98.4671C60.7943 101.994 60.3143 106.757 57.2453 109.171C53.7503 111.92 50.3353 111.789 47.3353 108.789C44.3353 105.789 44.2043 102.374 46.9533 98.879C49.7183 95.364 55.9913 95.1371 58.3233 98.4671Z" fill="#030303"/>
</svg>
