<svg width="145" height="229" viewBox="0 0 145 229" fill="none" xmlns="http://www.w3.org/2000/svg">
<path d="M144.36 24.667C144.926 29.193 143.976 40.788 142.384 48.804C139.241 64.625 132.717 79.776 123.542 92.564C121.677 95.163 119.812 97.763 117.947 100.362C118.753 102.079 119.56 103.798 120.366 105.515C121.696 108.349 123.57 114.267 124.529 118.667C125.488 123.067 127.808 129.735 129.683 133.484C137.802 149.717 135.595 163.651 122.883 176.419C120.974 178.336 119.064 180.255 117.155 182.172C118.605 184.588 120.055 187.003 121.505 189.419C127.784 199.879 131.241 210.815 131.384 220.667C131.423 223.334 131.461 226 131.5 228.667C112.333 228.759 93.167 228.851 74 228.943C42.375 229.095 15.487 228.974 14.25 228.674C12.38 228.221 12 227.45 12 224.106C12 213.408 17.007 198.089 24.142 186.953C25.149 185.382 26.156 183.809 27.163 182.238C25.295 180.414 23.427 178.592 21.559 176.768C17.943 173.238 14.857 168.95 12.858 164.678C9.97197 158.512 9.79002 157.463 10.197 149.363C10.575 141.847 11.119 139.717 14.207 133.667C16.172 129.817 18.764 122.569 19.967 117.56C21.17 112.551 23.18 106.752 24.435 104.673C25.195 103.413 25.955 102.153 26.716 100.893C24.893 98.355 23.071 95.818 21.248 93.28C7.59399 74.269 0 51.933 0 30.783C0 11.097 6.29297 0 17.457 0C29.763 0 44.349 18.653 52.776 45.167C55.69 54.334 59 70.782 59 76.093C59 76.951 59 77.809 59 78.667C63.271 78.667 67.542 78.667 71.813 78.667C76.084 78.667 80.355 78.667 84.626 78.667C85.167 75 85.707 71.334 86.248 67.667C89.704 44.23 99.008 21.577 110.007 9.819C117.002 2.342 120.959 0.166992 127.573 0.166992C131.899 0.166992 132.732 0.572999 136.523 4.53C140.622 8.808 143.209 15.453 144.36 24.667ZM7.49298 16.082C5.34898 22.765 6.06102 42.252 8.83502 52.78C12.803 67.843 20.932 83.997 29.75 94.344C32.088 97.087 34 99.64 34 100.017C34 100.394 32.947 102.27 31.659 104.185C28.749 108.513 26.439 114.856 24.931 122.667C24.294 125.967 22.146 131.817 20.158 135.667C17.3 141.2 16.462 144.09 16.156 149.461C15.812 155.496 16.122 156.973 18.926 162.669C33.678 192.635 89.632 198.844 116.956 173.547C124.993 166.106 128.001 159.886 127.995 150.721C127.991 144.645 127.51 142.731 124.528 136.92C122.624 133.209 119.929 125.57 118.54 119.942C117.022 113.793 114.794 107.746 112.955 104.788C111.935 103.147 110.915 101.506 109.895 99.865C110.914 98.665 111.933 97.466 112.952 96.266C128.041 78.505 136.862 56.553 137.745 34.571C138.499 15.784 134.758 6.16699 126.695 6.16699C112.395 6.16699 93.891 42.825 91.313 76.262C90.528 86.446 90.315 86.735 84.659 85.311C79.049 83.898 66.025 83.865 60.027 85.247C54.569 86.505 53 85.022 53 78.607C53 76.309 52.31 70.433 51.467 65.548C43.675 20.399 16.07 -10.654 7.49298 16.082ZM19.48 213.667C17.2 224.023 16.033 223.167 32.422 223.167C37.229 223.167 42.038 223.167 46.845 223.167C47.223 222.021 47.602 220.875 47.98 219.729C49.462 215.24 56.075 208.49 61.332 206.103C67.682 203.22 77.266 203.499 83.805 206.757C89.445 209.568 94.36 214.776 96.224 219.917C96.617 221 97.009 222.084 97.402 223.167C102.168 223.167 106.935 223.167 111.701 223.167C116.467 223.167 121.234 223.167 126 223.167C126 222.387 126 221.607 126 220.827C126 213.023 119.434 195.99 113.62 188.71C112.833 187.724 112.045 186.738 111.258 185.752C108.965 186.808 106.672 187.863 104.379 188.919C84.154 198.231 57.07 197.896 37.861 188.096C35.781 187.035 33.606 186.167 33.027 186.167C31.566 186.167 25.457 195.941 22.912 202.351C21.751 205.275 20.206 210.367 19.48 213.667ZM56.709 217.101C51.696 223.059 51.976 223.167 72.526 223.167C78.701 223.167 84.876 223.167 91.051 223.167C90.574 222.25 90.098 221.334 89.621 220.417C83.434 208.525 65.45 206.713 56.709 217.101Z" fill="#030303"/>
<path d="M46.519 67.501C49.735 85.223 47.566 93.167 39.511 93.167C33.739 93.167 20.276 71.401 16.584 56.103C14.274 46.528 14.471 33.548 16.989 29.417C18.672 26.657 19.551 26.167 22.819 26.167C25.902 26.167 27.381 26.881 30.257 29.757C36.906 36.406 43.766 52.328 46.519 67.501ZM22.537 32.514C21.333 32.976 21 34.822 21 41.024C21 54.604 28.015 74.067 36.41 83.779C41.189 89.308 42.427 87.877 41.646 77.72C40.757 66.158 37.724 55.098 32.571 44.627C27.814 34.961 25.003 31.568 22.537 32.514Z" fill="#030303"/>
<path d="M129.39 36.667C130.873 43.011 127.247 60.254 121.994 71.84C118.593 79.34 110.805 90.666 108.025 92.154C104.822 93.868 101.461 93.287 98.924 90.581C96.778 88.292 96.5079 87.114 96.5659 80.331C96.7749 55.974 110.016 26.167 120.627 26.167C124.377 26.167 127.666 28.789 128.436 32.392C128.704 33.643 129.133 35.567 129.39 36.667ZM103.078 71.981C101.889 80.088 101.878 84.442 103.045 86.167C103.89 87.417 104.624 87.032 107.438 83.858C116.922 73.16 125.232 48.531 123.324 36.775C122.012 28.689 117.824 31.473 111.465 44.658C107.022 53.87 104.557 61.901 103.078 71.981Z" fill="#030303"/>
<path d="M96.338 159.417C97.352 161.93 96.939 163.166 93.95 166.571C88.678 172.575 80.427 173.651 74.629 169.09C73.771 168.415 72.914 167.741 72.056 167.066C71.019 167.833 69.9809 168.599 68.9439 169.366C64.7839 172.442 57.312 172.536 53.323 169.562C49.101 166.415 46.475 161.506 48.018 159.646C49.923 157.351 51.8019 157.885 53.5219 161.21C56.5259 167.018 64.7249 167.532 67.5399 162.089C69.0239 159.218 68.982 159.117 64.523 154.844C59.411 149.946 58.687 146.467 62.115 143.274C66.255 139.417 78.249 139.416 82.106 143.273C85.577 146.744 84.012 151.742 77.817 156.968C75.478 158.942 75.241 159.603 76.155 161.608C77.263 164.041 80.841 166.167 83.825 166.167C86.34 166.167 89.985 163.336 91.038 160.566C92.008 158.015 95.47 157.265 96.338 159.417ZM69.978 146.672C66.359 147.467 66.227 149.058 69.58 151.5C71.915 153.201 72.2739 153.217 74.5479 151.727C79.2879 148.621 76.276 145.289 69.978 146.672Z" fill="#030303"/>
<path d="M51.7501 126.903C55.3161 131.6 51.5831 138.567 45.5001 138.567C37.4611 138.567 34.9351 128.32 42.0651 124.633C45.2451 122.988 49.5421 123.996 51.7501 126.903Z" fill="#030303"/>
<path d="M104.3 126.4C108.528 131.362 103.697 140.311 97.615 138.785C94.498 138.003 91 134.429 91 132.026C91 124.771 99.756 121.067 104.3 126.4Z" fill="#030303"/>
</svg>
