<svg width="162" height="194" viewBox="0 0 162 194" fill="none" xmlns="http://www.w3.org/2000/svg">
<path d="M160.076 14.572C162.564 19.927 162.57 30.195 160.088 35.572C158.318 39.408 151.499 47.072 149.857 47.072C149.423 47.072 150.214 50.109 151.614 53.822C156.897 67.827 158.377 84.514 155.441 96.969C153.23 106.351 147.441 116.615 140.358 123.715C138.315 125.763 136.271 127.811 134.228 129.859C135.73 132.45 137.232 135.041 138.734 137.632C146.46 150.963 150.993 165.665 152.509 182.327C153.019 187.929 152.87 190.497 151.974 191.577C150.895 192.877 141.651 193.072 80.9785 193.072C19.8755 193.072 11.0675 192.884 9.96549 191.556C8.22849 189.463 10.2595 171.777 13.5355 160.473C15.9895 152.006 22.3685 138.168 26.2225 132.956C26.9045 132.033 27.5875 131.11 28.2695 130.187C26.2595 128.208 24.2515 126.23 22.2415 124.251C4.78049 107.059 0.161502 79.448 10.4545 53.786C11.2285 51.857 12.0015 49.928 12.7755 47.999C11.0485 46.261 9.32048 44.524 7.59348 42.786C1.80348 36.961 -0.0335382 32.404 0.000461834 23.956C0.0264618 17.506 2.43452 11.77 7.05552 7.14902C17.2635 -3.05898 34.8105 -2.15297 44.1285 9.06403C45.3095 10.486 46.4925 11.909 47.6735 13.331C49.8075 12.483 51.9415 11.634 54.0755 10.786C63.9355 6.86702 71.6245 5.74002 84.7585 6.29102C94.4825 6.69902 98.0115 7.31503 105.478 9.90903C108.478 10.951 111.478 11.993 114.478 13.035C115.627 11.662 116.777 10.289 117.926 8.91602C124.519 1.03902 137.487 -2.24196 146.76 1.62104C151.665 3.66404 157.763 9.59503 160.076 14.572ZM7.0485 18.217C4.3265 25.013 7.3175 36.041 12.9755 40.07C13.9175 40.741 14.8595 41.411 15.8015 42.082C16.9715 40.497 18.1395 38.912 19.3095 37.327C21.2395 34.712 24.4295 31.021 26.3985 29.126C28.3675 27.231 29.9785 25.169 29.9785 24.545C29.9785 23.247 26.7505 21.504 22.7285 20.631C20.6685 20.184 19.9785 19.438 19.9785 17.66C19.9785 16.354 20.6195 15.04 21.4035 14.739C23.5015 13.934 29.3475 15.788 32.4795 18.252C35.1645 20.364 35.2705 20.369 38.5955 18.579C40.4565 17.577 41.9785 16.469 41.9785 16.117C41.9785 14.784 34.3585 8.14602 31.6635 7.13202C21.9835 3.48902 10.9595 8.45302 7.0485 18.217ZM11.6845 72.322C11.4465 73.559 11.1895 77.211 11.1145 80.436C11.0695 82.39 11.0235 84.345 10.9785 86.299C11.8955 86.128 12.8115 85.957 13.7285 85.786C15.2415 85.504 20.4225 84.463 25.2425 83.473C33.0215 81.875 34.1755 81.841 35.5025 83.168C38.1035 85.769 35.1915 87.645 25.7875 89.428C13.0455 91.844 11.7955 92.449 12.5765 95.806C12.9305 97.327 14.0595 100.53 15.0875 102.924C15.7105 104.375 16.3335 105.825 16.9565 107.276C18.5655 106.12 20.1755 104.963 21.7845 103.807C29.2785 98.423 30.8645 97.733 32.5425 99.125C33.3325 99.781 33.9785 100.705 33.9785 101.178C33.9785 101.651 31.0535 104.337 27.4785 107.146C23.9035 109.956 20.9785 112.699 20.9785 113.243C20.9785 113.787 23.5665 116.819 26.7285 119.981C32.5885 125.84 45.7405 133.233 52.7285 134.597C55.5475 135.147 55.9785 134.958 55.9785 133.174C55.9785 132.011 54.7835 130.376 53.2285 129.41C45.5285 124.628 41.9785 118.842 41.9785 111.072C41.9785 105.197 44.6055 99.2961 48.6335 96.1281C54.6655 91.3841 56.9785 96.116 51.5595 102.114C48.4505 105.555 47.9785 106.742 47.9785 111.114C47.9785 115.573 48.4185 116.621 51.8175 120.265C55.2335 123.928 56.2525 124.426 61.0675 124.788C67.8635 125.299 72.5715 122.946 75.7125 117.468C76.9405 115.325 77.9535 113.121 77.9625 112.57C77.9715 112.019 75.9605 110.498 73.4925 109.189C71.0245 107.88 66.9265 104.586 64.3855 101.869C59.8195 96.988 59.7735 96.87 60.4285 91.751C60.7925 88.902 62.3025 81.622 63.7845 75.572C66.1555 65.889 66.7485 64.534 68.7325 64.252C72.2675 63.75 72.4305 66.254 69.5955 77.567C68.1565 83.311 66.9785 88.138 66.9785 88.292C66.9785 88.446 73.2785 88.572 80.9785 88.572C88.6785 88.572 94.9785 88.495 94.9785 88.402C94.9785 88.308 93.8205 83.43 92.4065 77.56C89.6195 65.994 89.7525 63.757 93.1975 64.252C95.1695 64.535 95.7925 66.061 98.6405 77.572C102.425 92.87 102.601 95.54 100.085 99.666C98.4615 102.328 88.2165 110.159 84.9195 111.258C83.0375 111.885 86.7825 119.551 90.2075 122.083C94.3935 125.178 101.552 125.842 106.322 123.579C115.031 119.446 116.591 108.356 109.486 101.079C103.772 95.227 106.995 91.152 113.371 96.167C119.327 100.852 121.801 111.774 118.627 119.37C117.28 122.594 110.797 129.072 108.918 129.072C107.837 129.072 105.635 134.063 106.385 134.813C107.091 135.519 116.79 132.138 123.083 128.992C128.626 126.221 139.187 117.417 140.974 114.079C141.72 112.685 140.992 111.719 137.188 109.052C129.172 103.433 127.927 102.037 129.052 99.934C130.483 97.26 131.483 97.542 138.628 102.641C140.762 104.164 142.896 105.687 145.03 107.21C145.664 105.77 146.297 104.331 146.931 102.891C147.977 100.516 149.136 97.341 149.509 95.837C150.333 92.513 149.121 91.934 135.666 89.223C127.726 87.623 126.435 87.08 126.158 85.218C125.657 81.848 128.311 81.589 139.436 83.923C145.068 85.105 150.027 86.072 150.458 86.072C151.297 86.072 150.63 71.391 149.751 70.512C149.462 70.223 146.256 70.733 142.625 71.645C135.11 73.533 132.691 73.085 133.158 69.891C133.422 68.087 134.667 67.411 140.219 66.061C143.927 65.16 147.287 64.096 147.686 63.697C148.805 62.578 145.249 53.329 140.754 45.666C130.486 28.161 109.905 14.844 89.3925 12.433C87.5415 12.215 85.6915 11.998 83.8405 11.78C83.9465 13.061 84.0535 14.342 84.1595 15.623C84.2655 16.904 84.3725 18.184 84.4785 19.465C86.6765 19.869 88.8755 20.273 91.0735 20.677C99.2465 22.179 107.36 25.933 107.822 28.428C108.503 32.107 106.406 32.381 99.3225 29.536C95.5585 28.024 90.5665 26.568 88.2285 26.3C86.8115 26.137 85.3955 25.975 83.9785 25.812C83.9785 27.189 83.9785 28.565 83.9785 29.942C83.9785 33.596 84.2465 34.072 86.3005 34.072C88.9945 34.072 97.8965 36.899 99.7285 38.336C101.414 39.659 101.315 43.006 99.5685 43.676C98.7935 43.974 96.8155 43.522 95.1735 42.673C93.5315 41.824 90.3415 40.834 88.0835 40.473C86.7155 40.254 85.3465 40.035 83.9785 39.816C83.9785 41.536 83.9785 43.256 83.9785 44.976C83.9785 48.659 83.5455 50.301 82.4655 50.715C79.8475 51.72 77.9785 49.111 77.9785 44.45C77.9785 39.255 76.8985 38.971 68.8085 42.045C63.4825 44.069 60.9785 43.565 60.9785 40.47C60.9785 38.588 68.0565 35.16 73.4755 34.417C77.9595 33.802 77.9785 33.783 77.9785 29.8C77.9785 28.467 77.9785 27.133 77.9785 25.8C76.4625 26.008 74.9465 26.216 73.4305 26.424C70.9295 26.767 65.9325 28.227 62.3265 29.67C56.2925 32.084 55.6425 32.164 54.1565 30.678C52.6705 29.192 52.7035 28.903 54.5675 27.039C57.1755 24.431 69.3775 20.12 74.2285 20.093C77.9335 20.072 77.9785 20.024 77.9785 16.072C77.9785 12.344 77.7855 12.072 75.1385 12.072C70.1215 12.072 56.8065 15.984 49.4495 19.619C34.4105 27.05 23.0195 39.575 15.9955 56.405C12.7795 64.11 12.3765 63.62 24.7285 66.992C27.9175 67.862 28.9785 68.6501 28.9785 70.1441C28.9785 73.1051 26.6505 73.4841 19.4995 71.6881C11.5595 69.6931 12.2005 69.641 11.6845 72.322ZM16.1125 179.072C15.6775 182.097 15.3945 185.022 15.4825 185.572C15.5795 186.177 21.9495 186.68 31.5975 186.846C36.9155 186.937 42.2335 187.028 47.5515 187.119C47.9695 185.528 48.3855 183.937 48.8035 182.346C51.5355 171.935 60.6415 162.735 71.3645 159.55C88.9605 154.325 106.762 163.666 113.004 181.401C113.611 183.125 114.215 184.848 114.822 186.572C120.015 186.664 125.207 186.755 130.4 186.847C135.593 186.939 140.785 187.031 145.978 187.123C145.978 185.003 145.978 182.884 145.978 180.764C145.978 177.267 145.756 174.184 145.485 173.913C145.214 173.642 141.797 174.492 137.889 175.803C129.271 178.693 126.478 178.53 126.478 175.137C126.478 173.052 127.196 172.519 131.474 171.428C137.27 169.949 143.978 167.079 143.978 166.077C143.978 164.711 139.916 153.61 139.128 152.821C138.685 152.378 137.142 152.942 135.702 154.075C131.819 157.13 122.115 161.338 120.439 160.695C119.636 160.387 118.978 159.245 118.978 158.158C118.978 156.73 120.898 155.173 125.897 152.546C136.568 146.939 136.766 146.537 132.452 139.295C131.253 137.281 130.052 135.268 128.853 133.254C126.689 134.235 124.525 135.217 122.361 136.198C118.791 137.817 113.082 139.845 109.674 140.706C106.266 141.567 102.578 143.074 101.478 144.055C97.1545 147.911 92.5185 149.434 83.7755 149.874C72.5215 150.44 69.1805 149.746 62.9275 145.538C60.0985 143.634 55.0415 141.366 51.6895 140.497C48.3375 139.628 42.8235 137.661 39.4355 136.125C37.3825 135.194 35.3295 134.263 33.2765 133.332C32.2205 134.946 31.1635 136.559 30.1075 138.173C28.3645 140.835 26.6915 143.655 26.3905 144.44C25.7395 146.136 30.2535 149.734 37.7285 153.477C41.4545 155.343 42.9785 156.69 42.9785 158.12C42.9785 162.465 37.4225 161.324 27.9085 155.026C25.5445 153.461 23.2565 152.401 22.8225 152.669C22.2255 153.038 17.9785 165.186 17.9785 166.525C17.9785 167.141 25.9885 170.282 30.4825 171.428C34.7505 172.517 35.4785 173.056 35.4785 175.124C35.4785 178.461 33.2465 178.652 24.6795 176.05C20.7185 174.847 17.3485 173.797 17.1905 173.717C17.0325 173.637 16.5475 176.047 16.1125 179.072ZM55.8455 180.572C54.8425 182.772 54.0125 185.134 54.0005 185.822C53.9835 186.792 60.0545 187.072 81.0865 187.072C90.1225 187.072 99.1595 187.072 108.195 187.072C107.975 186.155 107.756 185.239 107.536 184.322C105.567 176.11 96.6085 167.401 87.6355 164.976C75.3245 161.648 61.3455 168.506 55.8455 180.572ZM64.7285 131.05C62.4305 131.068 61.9785 131.505 61.9785 133.704C61.9785 137.061 67.6555 142.557 72.0255 143.431C77.5705 144.54 88.9075 144.128 92.3425 142.693C99.0205 139.903 102.9 131.072 97.4465 131.072C93.6235 131.072 87.8675 128.347 84.2075 124.804C83.1175 123.749 82.0255 122.693 80.9355 121.638C80.0605 122.582 79.1855 123.526 78.3105 124.47C75.2075 127.816 68.5965 131.019 64.7285 131.05ZM71.5225 94.513C69.0235 94.888 66.9785 95.579 66.9785 96.048C66.9785 96.955 74.9395 102.997 78.7535 104.984C80.6825 105.989 81.7785 105.762 85.9525 103.49C91.3595 100.547 95.7145 96.475 94.6225 95.383C93.5955 94.356 76.7925 93.723 71.5225 94.513ZM123.132 12.55C122.027 13.809 120.922 15.067 119.817 16.326C120.761 16.948 121.703 17.57 122.647 18.192C126.191 20.528 126.591 20.522 129.702 18.075C131.098 16.977 134.07 15.586 136.306 14.984C139.783 14.048 140.551 14.134 141.607 15.578C143.415 18.05 142.24 19.932 138.447 20.644C136.611 20.988 134.337 22.123 133.393 23.166C131.751 24.98 131.889 25.288 136.578 30.317C139.273 33.207 142.605 37.074 143.982 38.91C144.816 40.023 145.65 41.135 146.484 42.248C147.409 41.52 148.334 40.793 149.259 40.065C153.424 36.789 155.978 30.991 155.978 24.808C155.978 14.522 147.477 6.07203 137.13 6.07203C131.375 6.07203 127.07 8.06402 123.132 12.55Z" fill="#030303"/>
<path d="M117.906 60.7073C120.655 64.2023 120.524 67.6173 117.524 70.6173C114.524 73.6173 111.109 73.7483 107.614 70.9993C104.312 68.4023 104.001 63.0503 106.979 60.0723C109.957 57.0943 115.309 57.4053 117.906 60.7073Z" fill="#030303"/>
<path d="M54.9785 60.0723C59.9245 65.0183 55.3025 73.9874 48.5075 72.6284C44.7155 71.8704 43.1804 70.3353 42.4224 66.5433C41.0634 59.7483 50.0325 55.1263 54.9785 60.0723Z" fill="#030303"/>
</svg>
