<svg width="20" height="20" viewBox="0 0 20 20" fill="none" xmlns="http://www.w3.org/2000/svg">
<path d="M0 2C0 0.895431 0.895431 0 2 0H18C19.1046 0 20 0.895431 20 2V20H0V2Z" fill="#610C39"/>
<path d="M9.13388 5.4878C9.51878 4.8374 10.481 4.8374 10.8659 5.4878L13.897 10.6097C14.2819 11.2601 13.8008 12.0731 13.031 12.0731H6.96882C6.19902 12.0731 5.71789 11.2601 6.10279 10.6097L9.13388 5.4878Z" fill="#FFF9FB"/>
<path d="M16 12.0732C16.5523 12.0732 17 12.51 17 13.0488V14.0244C17 14.5632 16.5523 15 16 15H4C3.44772 15 3 14.5632 3 14.0244V13.0488C3 12.51 3.44772 12.0732 4 12.0732V14.0244H16V12.0732Z" fill="#FFF9FB"/>
</svg>
