<svg width="20" height="20" viewBox="0 0 20 20" fill="none" xmlns="http://www.w3.org/2000/svg">
<path d="M0 2C0 0.895431 0.895431 0 2 0H18C19.1046 0 20 0.895431 20 2V20H0V2Z" fill="#610C39"/>
<path d="M9.10288 11.5C9.48778 12.1667 10.45 12.1667 10.8349 11.5L13.866 6.25C14.2509 5.58333 13.7698 4.75 13 4.75H6.93782C6.16802 4.75 5.6869 5.58333 6.0718 6.25L9.10288 11.5Z" fill="#FFF9FB"/>
<path d="M16.1025 12.0049C16.6067 12.0562 17 12.4823 17 13V14C17 14.5523 16.5523 15 16 15H4C3.44772 15 3 14.5523 3 14V13C3 12.4477 3.44772 12 4 12V14H16V12L16.1025 12.0049Z" fill="#FFF9FB"/>
</svg>
